<svg xmlns="http://www.w3.org/2000/svg" xmlns:xlink="http://www.w3.org/1999/xlink" width="500" zoomAndPan="magnify" viewBox="0 0 375 374.999991" height="500" preserveAspectRatio="xMidYMid meet" version="1.0"><defs><g/><clipPath id="ff399e4385"><path d="M 163 24.101562 L 198 24.101562 L 198 272.351562 L 163 272.351562 Z M 163 24.101562 " clip-rule="nonzero"/></clipPath><clipPath id="6cee97d2a4"><path d="M 171 269 L 198 269 L 198 272.351562 L 171 272.351562 Z M 171 269 " clip-rule="nonzero"/></clipPath><clipPath id="68a465092e"><path d="M 193 24.101562 L 234 24.101562 L 234 272.351562 L 193 272.351562 Z M 193 24.101562 " clip-rule="nonzero"/></clipPath><clipPath id="4894269239"><path d="M 294 89 L 337 89 L 337 272.351562 L 294 272.351562 Z M 294 89 " clip-rule="nonzero"/></clipPath><clipPath id="8d03396e4d"><path d="M 258 89 L 298 89 L 298 272.351562 L 258 272.351562 Z M 258 89 " clip-rule="nonzero"/></clipPath><clipPath id="59d1bb833f"><path d="M 82 97 L 146 97 L 146 272.351562 L 82 272.351562 Z M 82 97 " clip-rule="nonzero"/></clipPath><clipPath id="c91e8f0f27"><path d="M 141 97 L 177 97 L 177 272.351562 L 141 272.351562 Z M 141 97 " clip-rule="nonzero"/></clipPath><clipPath id="6b4238e07b"><path d="M 185 123 L 249 123 L 249 272.351562 L 185 272.351562 Z M 185 123 " clip-rule="nonzero"/></clipPath><clipPath id="696e5a71ef"><path d="M 244 123 L 280 123 L 280 272.351562 L 244 272.351562 Z M 244 123 " clip-rule="nonzero"/></clipPath><clipPath id="62d9e18ab7"><path d="M 49 190 L 161 190 L 161 272.351562 L 49 272.351562 Z M 49 190 " clip-rule="nonzero"/></clipPath><clipPath id="adeb4a5f53"><path d="M 5.292969 190 L 53 190 L 53 272.351562 L 5.292969 272.351562 Z M 5.292969 190 " clip-rule="nonzero"/></clipPath><clipPath id="3218869465"><path d="M 283 200 L 349 200 L 349 272.351562 L 283 272.351562 Z M 283 200 " clip-rule="nonzero"/></clipPath><clipPath id="1ced352624"><path d="M 344 200 L 369.792969 200 L 369.792969 272.351562 L 344 272.351562 Z M 344 200 " clip-rule="nonzero"/></clipPath></defs><g clip-path="url(#ff399e4385)"><path fill="#0082a5" d="M 195.449219 272.382812 C 195.242188 272.382812 195.042969 272.34375 194.851562 272.265625 C 194.65625 272.183594 194.488281 272.070312 194.339844 271.925781 C 194.195312 271.777344 194.082031 271.609375 194 271.414062 C 193.921875 271.222656 193.882812 271.023438 193.882812 270.816406 L 193.882812 29.203125 L 166.460938 54 L 166.460938 120.089844 C 166.460938 120.296875 166.421875 120.496094 166.339844 120.6875 C 166.261719 120.882812 166.148438 121.050781 166 121.199219 C 165.855469 121.34375 165.683594 121.457031 165.492188 121.535156 C 165.300781 121.617188 165.101562 121.65625 164.890625 121.65625 C 164.683594 121.65625 164.484375 121.617188 164.292969 121.535156 C 164.101562 121.457031 163.929688 121.34375 163.785156 121.199219 C 163.636719 121.050781 163.523438 120.882812 163.445312 120.6875 C 163.363281 120.496094 163.324219 120.296875 163.324219 120.089844 L 163.324219 53.304688 C 163.324219 52.839844 163.496094 52.453125 163.839844 52.140625 L 194.398438 24.507812 C 194.628906 24.296875 194.898438 24.171875 195.203125 24.121094 C 195.507812 24.074219 195.804688 24.109375 196.085938 24.238281 C 196.371094 24.363281 196.59375 24.554688 196.765625 24.816406 C 196.933594 25.074219 197.019531 25.359375 197.019531 25.667969 L 197.019531 270.816406 C 197.019531 271.023438 196.976562 271.222656 196.898438 271.414062 C 196.820312 271.609375 196.707031 271.777344 196.558594 271.925781 C 196.410156 272.070312 196.242188 272.183594 196.050781 272.265625 C 195.859375 272.34375 195.660156 272.382812 195.449219 272.382812 Z M 195.449219 272.382812 " fill-opacity="1" fill-rule="nonzero"/></g><g clip-path="url(#6cee97d2a4)"><path fill="#0082a5" d="M 195.449219 272.382812 L 172.964844 272.382812 C 172.757812 272.382812 172.558594 272.34375 172.367188 272.265625 C 172.175781 272.183594 172.003906 272.070312 171.859375 271.925781 C 171.710938 271.777344 171.597656 271.609375 171.519531 271.414062 C 171.4375 271.222656 171.398438 271.023438 171.398438 270.816406 C 171.398438 270.609375 171.4375 270.410156 171.519531 270.214844 C 171.597656 270.023438 171.710938 269.855469 171.859375 269.707031 C 172.003906 269.5625 172.175781 269.449219 172.367188 269.367188 C 172.558594 269.289062 172.757812 269.25 172.964844 269.25 L 195.449219 269.25 C 195.660156 269.25 195.859375 269.289062 196.050781 269.367188 C 196.242188 269.449219 196.410156 269.5625 196.558594 269.707031 C 196.707031 269.855469 196.820312 270.023438 196.898438 270.214844 C 196.976562 270.410156 197.019531 270.609375 197.019531 270.816406 C 197.019531 271.023438 196.976562 271.222656 196.898438 271.414062 C 196.820312 271.609375 196.707031 271.777344 196.558594 271.925781 C 196.410156 272.070312 196.242188 272.183594 196.050781 272.265625 C 195.859375 272.34375 195.660156 272.382812 195.449219 272.382812 Z M 195.449219 272.382812 " fill-opacity="1" fill-rule="nonzero"/></g><g clip-path="url(#68a465092e)"><path fill="#0082a5" d="M 232.332031 272.382812 L 195.449219 272.382812 C 195.242188 272.382812 195.042969 272.34375 194.851562 272.265625 C 194.660156 272.183594 194.488281 272.070312 194.34375 271.925781 C 194.195312 271.777344 194.082031 271.609375 194.003906 271.414062 C 193.921875 271.222656 193.882812 271.023438 193.882812 270.816406 C 193.882812 270.609375 193.921875 270.410156 194.003906 270.214844 C 194.082031 270.023438 194.195312 269.855469 194.34375 269.707031 C 194.488281 269.5625 194.660156 269.449219 194.851562 269.367188 C 195.042969 269.289062 195.242188 269.25 195.449219 269.25 L 230.761719 269.25 L 230.761719 54.085938 L 197.019531 28.804688 L 197.019531 160.050781 C 197.019531 160.257812 196.976562 160.457031 196.898438 160.648438 C 196.820312 160.84375 196.707031 161.011719 196.558594 161.160156 C 196.410156 161.304688 196.242188 161.417969 196.050781 161.5 C 195.859375 161.578125 195.660156 161.617188 195.449219 161.617188 C 195.242188 161.617188 195.042969 161.578125 194.851562 161.5 C 194.660156 161.417969 194.488281 161.304688 194.34375 161.160156 C 194.195312 161.011719 194.082031 160.84375 194.003906 160.648438 C 193.921875 160.457031 193.882812 160.257812 193.882812 160.050781 L 193.882812 25.667969 C 193.882812 25.371094 193.960938 25.097656 194.117188 24.84375 C 194.273438 24.59375 194.484375 24.398438 194.75 24.265625 C 195.015625 24.132812 195.292969 24.082031 195.589844 24.109375 C 195.886719 24.132812 196.152344 24.238281 196.390625 24.414062 L 233.269531 52.050781 C 233.6875 52.363281 233.898438 52.78125 233.898438 53.304688 L 233.898438 270.816406 C 233.898438 271.023438 233.859375 271.222656 233.78125 271.414062 C 233.699219 271.609375 233.585938 271.777344 233.441406 271.925781 C 233.292969 272.070312 233.125 272.183594 232.929688 272.265625 C 232.738281 272.34375 232.539062 272.382812 232.332031 272.382812 Z M 232.332031 272.382812 " fill-opacity="1" fill-rule="nonzero"/></g><g clip-path="url(#4894269239)"><path fill="#ff773b" d="M 334.71875 272.382812 L 295.628906 272.382812 C 295.417969 272.382812 295.21875 272.34375 295.027344 272.265625 C 294.835938 272.183594 294.664062 272.070312 294.519531 271.925781 C 294.371094 271.777344 294.257812 271.609375 294.179688 271.414062 C 294.101562 271.222656 294.058594 271.023438 294.058594 270.816406 L 294.058594 91.4375 C 294.058594 91.144531 294.136719 90.871094 294.289062 90.621094 C 294.441406 90.371094 294.648438 90.179688 294.910156 90.046875 C 295.167969 89.910156 295.445312 89.855469 295.738281 89.875 C 296.03125 89.894531 296.296875 89.992188 296.535156 90.160156 L 335.625 117.921875 C 336.066406 118.234375 336.285156 118.660156 336.285156 119.199219 L 336.285156 270.816406 C 336.285156 271.023438 336.246094 271.222656 336.167969 271.414062 C 336.089844 271.609375 335.976562 271.777344 335.828125 271.925781 C 335.679688 272.070312 335.511719 272.183594 335.320312 272.265625 C 335.128906 272.34375 334.925781 272.382812 334.71875 272.382812 Z M 297.195312 269.25 L 333.152344 269.25 L 333.152344 120.007812 L 297.195312 94.472656 Z M 297.195312 269.25 " fill-opacity="1" fill-rule="nonzero"/></g><g clip-path="url(#8d03396e4d)"><path fill="#ff773b" d="M 295.628906 272.382812 L 260.542969 272.382812 C 260.335938 272.382812 260.136719 272.34375 259.945312 272.265625 C 259.753906 272.183594 259.582031 272.070312 259.4375 271.925781 C 259.289062 271.777344 259.175781 271.609375 259.097656 271.414062 C 259.015625 271.222656 258.976562 271.023438 258.976562 270.816406 C 258.976562 270.609375 259.015625 270.410156 259.097656 270.214844 C 259.175781 270.023438 259.289062 269.855469 259.4375 269.707031 C 259.582031 269.5625 259.753906 269.449219 259.945312 269.367188 C 260.136719 269.289062 260.335938 269.25 260.542969 269.25 L 294.058594 269.25 L 294.058594 94.675781 L 262.113281 119.957031 L 262.113281 142.855469 C 262.113281 143.0625 262.070312 143.261719 261.992188 143.453125 C 261.914062 143.644531 261.800781 143.816406 261.652344 143.960938 C 261.503906 144.109375 261.335938 144.222656 261.144531 144.300781 C 260.953125 144.382812 260.75 144.421875 260.542969 144.421875 C 260.335938 144.421875 260.136719 144.382812 259.945312 144.300781 C 259.753906 144.222656 259.582031 144.109375 259.4375 143.960938 C 259.289062 143.816406 259.175781 143.644531 259.097656 143.453125 C 259.015625 143.261719 258.976562 143.0625 258.976562 142.855469 L 258.976562 119.199219 C 258.976562 118.695312 259.175781 118.285156 259.570312 117.972656 L 294.652344 90.210938 C 294.890625 90.023438 295.15625 89.914062 295.457031 89.878906 C 295.753906 89.847656 296.039062 89.894531 296.308594 90.027344 C 296.582031 90.15625 296.796875 90.351562 296.957031 90.605469 C 297.117188 90.859375 297.195312 91.136719 297.195312 91.4375 L 297.195312 270.816406 C 297.195312 271.023438 297.15625 271.222656 297.078125 271.414062 C 296.996094 271.609375 296.882812 271.777344 296.738281 271.925781 C 296.589844 272.070312 296.417969 272.183594 296.226562 272.265625 C 296.035156 272.34375 295.835938 272.382812 295.628906 272.382812 Z M 295.628906 272.382812 " fill-opacity="1" fill-rule="nonzero"/></g><g clip-path="url(#59d1bb833f)"><path fill="#fcd000" d="M 143.484375 272.382812 L 84.34375 272.382812 C 84.132812 272.382812 83.933594 272.34375 83.742188 272.265625 C 83.550781 272.183594 83.382812 272.070312 83.234375 271.925781 C 83.085938 271.777344 82.972656 271.609375 82.894531 271.414062 C 82.816406 271.222656 82.773438 271.023438 82.773438 270.816406 C 82.773438 270.609375 82.816406 270.410156 82.894531 270.214844 C 82.972656 270.023438 83.085938 269.855469 83.234375 269.707031 C 83.382812 269.5625 83.550781 269.449219 83.742188 269.367188 C 83.933594 269.289062 84.132812 269.25 84.34375 269.25 L 141.914062 269.25 L 141.914062 101.660156 L 85.910156 130.519531 L 85.910156 202.292969 C 85.910156 202.5 85.871094 202.699219 85.789062 202.890625 C 85.710938 203.085938 85.597656 203.253906 85.449219 203.402344 C 85.304688 203.546875 85.132812 203.660156 84.941406 203.742188 C 84.75 203.820312 84.550781 203.859375 84.34375 203.859375 C 84.132812 203.859375 83.933594 203.820312 83.742188 203.742188 C 83.550781 203.660156 83.382812 203.546875 83.234375 203.402344 C 83.085938 203.253906 82.972656 203.085938 82.894531 202.890625 C 82.816406 202.699219 82.773438 202.5 82.773438 202.292969 L 82.773438 129.5625 C 82.773438 129.269531 82.851562 128.996094 83.003906 128.746094 C 83.15625 128.496094 83.363281 128.304688 83.625 128.171875 L 142.765625 97.699219 C 142.882812 97.636719 143.007812 97.589844 143.140625 97.5625 C 143.273438 97.53125 143.40625 97.519531 143.539062 97.523438 C 143.671875 97.53125 143.804688 97.550781 143.933594 97.589844 C 144.0625 97.628906 144.183594 97.683594 144.296875 97.753906 C 144.414062 97.824219 144.515625 97.90625 144.609375 98.003906 C 144.703125 98.097656 144.785156 98.207031 144.847656 98.324219 C 144.914062 98.441406 144.964844 98.5625 145 98.695312 C 145.03125 98.824219 145.050781 98.957031 145.050781 99.089844 L 145.050781 270.816406 C 145.050781 271.023438 145.011719 271.222656 144.929688 271.414062 C 144.851562 271.609375 144.738281 271.777344 144.589844 271.925781 C 144.445312 272.070312 144.273438 272.183594 144.082031 272.265625 C 143.890625 272.34375 143.691406 272.382812 143.484375 272.382812 Z M 143.484375 272.382812 " fill-opacity="1" fill-rule="nonzero"/></g><g clip-path="url(#c91e8f0f27)"><path fill="#fcd000" d="M 174.554688 272.382812 L 143.484375 272.382812 C 143.273438 272.382812 143.074219 272.34375 142.882812 272.265625 C 142.691406 272.183594 142.519531 272.070312 142.375 271.925781 C 142.226562 271.777344 142.113281 271.609375 142.035156 271.414062 C 141.953125 271.222656 141.914062 271.023438 141.914062 270.816406 L 141.914062 99.09375 C 141.914062 98.777344 142.003906 98.488281 142.175781 98.226562 C 142.351562 97.964844 142.585938 97.769531 142.875 97.648438 C 143.167969 97.527344 143.46875 97.496094 143.777344 97.554688 C 144.085938 97.613281 144.355469 97.753906 144.582031 97.972656 L 175.652344 128.441406 C 175.964844 128.75 176.121094 129.125 176.121094 129.5625 L 176.121094 270.816406 C 176.121094 271.023438 176.082031 271.222656 176.003906 271.414062 C 175.925781 271.609375 175.8125 271.777344 175.664062 271.925781 C 175.515625 272.070312 175.347656 272.183594 175.15625 272.265625 C 174.964844 272.34375 174.761719 272.382812 174.554688 272.382812 Z M 145.050781 269.25 L 172.988281 269.25 L 172.988281 130.222656 L 145.050781 102.824219 Z M 145.050781 269.25 " fill-opacity="1" fill-rule="nonzero"/></g><g clip-path="url(#6b4238e07b)"><path fill="#0cbc8e" d="M 246.511719 272.382812 L 187.371094 272.382812 C 187.164062 272.382812 186.964844 272.34375 186.773438 272.265625 C 186.578125 272.183594 186.410156 272.070312 186.261719 271.925781 C 186.117188 271.777344 186.003906 271.609375 185.921875 271.414062 C 185.84375 271.222656 185.804688 271.023438 185.804688 270.816406 L 185.804688 164.613281 C 185.804688 164.054688 186.035156 163.621094 186.496094 163.3125 L 245.636719 123.636719 C 245.878906 123.476562 246.144531 123.386719 246.433594 123.371094 C 246.722656 123.355469 246.992188 123.417969 247.25 123.554688 C 247.503906 123.691406 247.707031 123.882812 247.855469 124.128906 C 248.003906 124.378906 248.078125 124.648438 248.078125 124.9375 L 248.078125 270.816406 C 248.078125 271.023438 248.039062 271.222656 247.960938 271.414062 C 247.882812 271.609375 247.769531 271.777344 247.621094 271.925781 C 247.472656 272.070312 247.304688 272.183594 247.113281 272.265625 C 246.917969 272.34375 246.71875 272.382812 246.511719 272.382812 Z M 188.941406 269.25 L 244.945312 269.25 L 244.945312 127.875 L 188.941406 165.445312 Z M 188.941406 269.25 " fill-opacity="1" fill-rule="nonzero"/></g><g clip-path="url(#696e5a71ef)"><path fill="#0cbc8e" d="M 277.585938 272.382812 L 246.511719 272.382812 C 246.304688 272.382812 246.105469 272.34375 245.910156 272.265625 C 245.71875 272.183594 245.550781 272.070312 245.402344 271.925781 C 245.257812 271.777344 245.144531 271.609375 245.0625 271.414062 C 244.984375 271.222656 244.945312 271.023438 244.945312 270.816406 L 244.945312 124.9375 C 244.945312 124.601562 245.042969 124.300781 245.234375 124.027344 C 245.429688 123.757812 245.683594 123.566406 246 123.457031 C 246.316406 123.347656 246.632812 123.339844 246.957031 123.433594 C 247.277344 123.527344 247.539062 123.707031 247.746094 123.96875 L 278.820312 163.644531 C 279.039062 163.929688 279.152344 164.25 279.152344 164.609375 L 279.152344 270.816406 C 279.152344 271.023438 279.113281 271.222656 279.03125 271.414062 C 278.953125 271.609375 278.839844 271.777344 278.691406 271.925781 C 278.546875 272.070312 278.375 272.183594 278.183594 272.265625 C 277.992188 272.34375 277.792969 272.382812 277.585938 272.382812 Z M 248.078125 269.25 L 276.015625 269.25 L 276.015625 165.152344 L 248.078125 129.480469 Z M 248.078125 269.25 " fill-opacity="1" fill-rule="nonzero"/></g><g clip-path="url(#62d9e18ab7)"><path fill="#0cbc8e" d="M 159.019531 272.382812 L 50.933594 272.382812 C 50.726562 272.382812 50.527344 272.34375 50.335938 272.265625 C 50.144531 272.183594 49.972656 272.070312 49.828125 271.925781 C 49.679688 271.777344 49.566406 271.609375 49.488281 271.414062 C 49.40625 271.222656 49.367188 271.023438 49.367188 270.816406 L 49.367188 192.011719 C 49.367188 191.484375 49.582031 191.0625 50.003906 190.75 C 50.429688 190.433594 50.890625 190.351562 51.394531 190.511719 L 159.480469 223.773438 C 159.808594 223.875 160.078125 224.0625 160.28125 224.339844 C 160.484375 224.617188 160.585938 224.925781 160.585938 225.269531 L 160.585938 270.816406 C 160.585938 271.023438 160.546875 271.222656 160.46875 271.414062 C 160.386719 271.609375 160.277344 271.777344 160.128906 271.925781 C 159.980469 272.070312 159.8125 272.183594 159.621094 272.265625 C 159.425781 272.34375 159.226562 272.382812 159.019531 272.382812 Z M 52.503906 269.25 L 157.453125 269.25 L 157.453125 226.429688 L 52.503906 194.132812 Z M 52.503906 269.25 " fill-opacity="1" fill-rule="nonzero"/></g><g clip-path="url(#adeb4a5f53)"><path fill="#0cbc8e" d="M 50.933594 272.382812 L 6.953125 272.382812 C 6.746094 272.382812 6.542969 272.34375 6.351562 272.265625 C 6.160156 272.183594 5.992188 272.070312 5.84375 271.925781 C 5.695312 271.777344 5.582031 271.609375 5.503906 271.414062 C 5.425781 271.222656 5.386719 271.023438 5.386719 270.816406 L 5.386719 225.269531 C 5.382812 224.75 5.589844 224.335938 6.007812 224.023438 L 49.988281 190.761719 C 50.226562 190.582031 50.492188 190.480469 50.789062 190.449219 C 51.085938 190.421875 51.367188 190.476562 51.632812 190.609375 C 51.898438 190.742188 52.109375 190.933594 52.265625 191.183594 C 52.425781 191.4375 52.503906 191.714844 52.503906 192.011719 L 52.503906 270.816406 C 52.503906 271.023438 52.464844 271.222656 52.382812 271.414062 C 52.304688 271.609375 52.191406 271.777344 52.042969 271.925781 C 51.898438 272.070312 51.726562 272.183594 51.535156 272.265625 C 51.34375 272.34375 51.144531 272.382812 50.933594 272.382812 Z M 8.519531 269.25 L 49.367188 269.25 L 49.367188 195.160156 L 8.519531 226.050781 Z M 8.519531 269.25 " fill-opacity="1" fill-rule="nonzero"/></g><g clip-path="url(#3218869465)"><path fill="#d84aa9" d="M 346.558594 272.382812 L 284.816406 272.382812 C 284.609375 272.382812 284.410156 272.34375 284.21875 272.265625 C 284.027344 272.183594 283.855469 272.070312 283.710938 271.925781 C 283.5625 271.777344 283.449219 271.609375 283.371094 271.414062 C 283.289062 271.222656 283.25 271.023438 283.25 270.816406 L 283.25 225.269531 C 283.25 224.941406 283.34375 224.644531 283.53125 224.375 C 283.71875 224.105469 283.96875 223.914062 284.277344 223.800781 L 346.015625 201.074219 C 346.527344 200.878906 347.007812 200.941406 347.453125 201.257812 C 347.902344 201.570312 348.125 202 348.125 202.542969 L 348.125 270.816406 C 348.125 271.023438 348.085938 271.222656 348.007812 271.414062 C 347.925781 271.609375 347.8125 271.777344 347.667969 271.925781 C 347.519531 272.070312 347.351562 272.183594 347.15625 272.265625 C 346.964844 272.34375 346.765625 272.382812 346.558594 272.382812 Z M 286.386719 269.25 L 344.988281 269.25 L 344.988281 204.789062 L 286.386719 226.363281 Z M 286.386719 269.25 " fill-opacity="1" fill-rule="nonzero"/></g><g clip-path="url(#1ced352624)"><path fill="#d84aa9" d="M 368.21875 272.382812 L 346.558594 272.382812 C 346.351562 272.382812 346.148438 272.34375 345.957031 272.265625 C 345.765625 272.183594 345.597656 272.070312 345.449219 271.925781 C 345.300781 271.777344 345.1875 271.609375 345.109375 271.414062 C 345.03125 271.222656 344.988281 271.023438 344.988281 270.816406 L 344.988281 202.542969 C 344.988281 202.222656 345.078125 201.929688 345.257812 201.664062 C 345.4375 201.398438 345.679688 201.207031 345.976562 201.089844 C 346.273438 200.96875 346.578125 200.941406 346.890625 201.007812 C 347.207031 201.078125 347.472656 201.230469 347.691406 201.460938 L 369.355469 224.191406 C 369.644531 224.492188 369.789062 224.851562 369.789062 225.269531 L 369.789062 270.816406 C 369.789062 271.023438 369.746094 271.222656 369.667969 271.414062 C 369.589844 271.609375 369.476562 271.777344 369.328125 271.925781 C 369.179688 272.070312 369.011719 272.183594 368.820312 272.265625 C 368.628906 272.34375 368.425781 272.382812 368.21875 272.382812 Z M 348.125 269.25 L 366.652344 269.25 L 366.652344 225.898438 L 348.125 206.460938 Z M 348.125 269.25 " fill-opacity="1" fill-rule="nonzero"/></g><g fill="#0082a5" fill-opacity="1"><g transform="translate(96.319447, 333.835791)"><g><path d="M 19 0.703125 C 16.539062 0.703125 14.265625 0.253906 12.171875 -0.640625 C 10.078125 -1.546875 8.253906 -2.78125 6.703125 -4.34375 C 5.160156 -5.90625 3.945312 -7.738281 3.0625 -9.84375 C 2.1875 -11.957031 1.75 -14.242188 1.75 -16.703125 C 1.75 -19.160156 2.1875 -21.453125 3.0625 -23.578125 C 3.945312 -25.710938 5.160156 -27.5625 6.703125 -29.125 C 8.253906 -30.6875 10.078125 -31.90625 12.171875 -32.78125 C 14.265625 -33.664062 16.539062 -34.109375 19 -34.109375 C 21.425781 -34.109375 23.691406 -33.664062 25.796875 -32.78125 C 27.910156 -31.90625 29.738281 -30.6875 31.28125 -29.125 C 32.832031 -27.5625 34.046875 -25.710938 34.921875 -23.578125 C 35.804688 -21.453125 36.25 -19.160156 36.25 -16.703125 C 36.25 -14.242188 35.804688 -11.957031 34.921875 -9.84375 C 34.046875 -7.738281 32.832031 -5.90625 31.28125 -4.34375 C 29.738281 -2.78125 27.910156 -1.546875 25.796875 -0.640625 C 23.691406 0.253906 21.425781 0.703125 19 0.703125 Z M 19 -6.375 C 20.394531 -6.375 21.671875 -6.628906 22.828125 -7.140625 C 23.992188 -7.660156 25 -8.382812 25.84375 -9.3125 C 26.695312 -10.25 27.363281 -11.347656 27.84375 -12.609375 C 28.320312 -13.878906 28.5625 -15.242188 28.5625 -16.703125 C 28.5625 -18.160156 28.320312 -19.519531 27.84375 -20.78125 C 27.363281 -22.050781 26.695312 -23.140625 25.84375 -24.046875 C 25 -24.960938 23.992188 -25.6875 22.828125 -26.21875 C 21.671875 -26.757812 20.394531 -27.03125 19 -27.03125 C 17.601562 -27.03125 16.320312 -26.757812 15.15625 -26.21875 C 13.988281 -25.6875 12.984375 -24.960938 12.140625 -24.046875 C 11.296875 -23.140625 10.628906 -22.050781 10.140625 -20.78125 C 9.660156 -19.519531 9.421875 -18.160156 9.421875 -16.703125 C 9.421875 -15.242188 9.660156 -13.878906 10.140625 -12.609375 C 10.628906 -11.347656 11.296875 -10.257812 12.140625 -9.34375 C 12.984375 -8.4375 13.988281 -7.710938 15.15625 -7.171875 C 16.320312 -6.640625 17.601562 -6.375 19 -6.375 Z M 19 -6.375 "/></g></g></g><g fill="#0082a5" fill-opacity="1"><g transform="translate(135.942871, 333.835791)"><g><path d="M 3.734375 -34 L 7.484375 -34 L 21.234375 -15.90625 L 34.859375 -34 L 38.59375 -34 L 38.59375 0 L 31.3125 0 L 31.3125 -18.59375 L 22.59375 -7.078125 L 19.6875 -7.078125 L 11.015625 -18.546875 L 11.015625 0 L 3.734375 0 Z M 3.734375 -34 "/></g></g></g><g fill="#0082a5" fill-opacity="1"><g transform="translate(179.902326, 333.835791)"><g><path d="M 17.109375 0.703125 C 15.109375 0.703125 13.273438 0.351562 11.609375 -0.34375 C 9.953125 -1.039062 8.523438 -2.015625 7.328125 -3.265625 C 6.128906 -4.515625 5.1875 -6.007812 4.5 -7.75 C 3.820312 -9.5 3.484375 -11.40625 3.484375 -13.46875 L 3.484375 -33.40625 L 10.765625 -33.40625 L 10.765625 -13.5625 C 10.765625 -11.332031 11.335938 -9.578125 12.484375 -8.296875 C 13.628906 -7.015625 15.148438 -6.375 17.046875 -6.375 C 18.941406 -6.375 20.472656 -7.015625 21.640625 -8.296875 C 22.804688 -9.578125 23.390625 -11.332031 23.390625 -13.5625 L 23.390625 -33.40625 L 30.65625 -33.40625 L 30.65625 -13.46875 C 30.65625 -11.40625 30.316406 -9.5 29.640625 -7.75 C 28.960938 -6.007812 28.023438 -4.515625 26.828125 -3.265625 C 25.628906 -2.015625 24.195312 -1.039062 22.53125 -0.34375 C 20.875 0.351562 19.066406 0.703125 17.109375 0.703125 Z M 17.109375 0.703125 "/></g></g></g><g fill="#0082a5" fill-opacity="1"><g transform="translate(215.688059, 333.835791)"><g><path d="M 3.734375 -33.40625 L 14.203125 -33.40625 C 15.929688 -33.40625 17.535156 -33.140625 19.015625 -32.609375 C 20.492188 -32.078125 21.765625 -31.328125 22.828125 -30.359375 C 23.898438 -29.398438 24.734375 -28.253906 25.328125 -26.921875 C 25.921875 -25.585938 26.21875 -24.144531 26.21875 -22.59375 C 26.21875 -20.59375 25.734375 -18.785156 24.765625 -17.171875 C 23.804688 -15.566406 22.484375 -14.3125 20.796875 -13.40625 L 28.625 0 L 20.140625 0 L 13.65625 -11.71875 L 11.015625 -11.71875 L 11.015625 0 L 3.734375 0 Z M 13.859375 -18.15625 C 15.421875 -18.15625 16.660156 -18.539062 17.578125 -19.3125 C 18.492188 -20.09375 18.953125 -21.164062 18.953125 -22.53125 C 18.953125 -23.894531 18.484375 -24.910156 17.546875 -25.578125 C 16.617188 -26.242188 15.390625 -26.578125 13.859375 -26.578125 L 11.015625 -26.578125 L 11.015625 -18.15625 Z M 13.859375 -18.15625 "/></g></g></g><g fill="#0082a5" fill-opacity="1"><g transform="translate(246.689176, 333.835791)"><g><path d="M 13.65625 -34 L 18.296875 -34 L 31.46875 0 L 23.78125 0 L 21.734375 -5.640625 L 10.21875 -5.640625 L 8.234375 0 L 0.5 0 Z M 19.5 -11.921875 L 16 -21.734375 L 12.46875 -11.921875 Z M 19.5 -11.921875 "/></g></g></g></svg>