<svg xmlns="http://www.w3.org/2000/svg" xmlns:xlink="http://www.w3.org/1999/xlink" width="500" zoomAndPan="magnify" viewBox="0 0 375 374.999991" height="500" preserveAspectRatio="xMidYMid meet" version="1.0"><defs><g/><clipPath id="61ba5dce45"><path d="M 170 56.21875 L 195 56.21875 L 195 235.46875 L 170 235.46875 Z M 170 56.21875 " clip-rule="nonzero"/></clipPath><clipPath id="bbaea2a316"><path d="M 176 233 L 195 233 L 195 235.46875 L 176 235.46875 Z M 176 233 " clip-rule="nonzero"/></clipPath><clipPath id="cccfe28795"><path d="M 192 56.21875 L 222 56.21875 L 222 235.46875 L 192 235.46875 Z M 192 56.21875 " clip-rule="nonzero"/></clipPath><clipPath id="52bf703c13"><path d="M 264 103 L 296 103 L 296 235.46875 L 264 235.46875 Z M 264 103 " clip-rule="nonzero"/></clipPath><clipPath id="39ed9d4068"><path d="M 239 103 L 267 103 L 267 235.46875 L 239 235.46875 Z M 239 103 " clip-rule="nonzero"/></clipPath><clipPath id="1bce247f49"><path d="M 112 109 L 157 109 L 157 235.46875 L 112 235.46875 Z M 112 109 " clip-rule="nonzero"/></clipPath><clipPath id="89b569abe3"><path d="M 154 109 L 180 109 L 180 235.46875 L 154 235.46875 Z M 154 109 " clip-rule="nonzero"/></clipPath><clipPath id="a8b9a7c1f9"><path d="M 186 127 L 232 127 L 232 235.46875 L 186 235.46875 Z M 186 127 " clip-rule="nonzero"/></clipPath><clipPath id="83e30f30dc"><path d="M 229 127 L 254 127 L 254 235.46875 L 229 235.46875 Z M 229 127 " clip-rule="nonzero"/></clipPath><clipPath id="e4b57406a9"><path d="M 87 176 L 169 176 L 169 235.46875 L 87 235.46875 Z M 87 176 " clip-rule="nonzero"/></clipPath><clipPath id="038dfa3b0c"><path d="M 56.050781 176 L 91 176 L 91 235.46875 L 56.050781 235.46875 Z M 56.050781 176 " clip-rule="nonzero"/></clipPath><clipPath id="2b9eafcbec"><path d="M 256 183 L 304 183 L 304 235.46875 L 256 235.46875 Z M 256 183 " clip-rule="nonzero"/></clipPath><clipPath id="4c84fd5373"><path d="M 301 183 L 319.300781 183 L 319.300781 235.46875 L 301 235.46875 Z M 301 183 " clip-rule="nonzero"/></clipPath></defs><g clip-path="url(#61ba5dce45)"><path fill="#0082a5" d="M 193.382812 235.492188 C 193.234375 235.492188 193.089844 235.464844 192.949219 235.40625 C 192.8125 235.347656 192.691406 235.265625 192.582031 235.160156 C 192.476562 235.054688 192.394531 234.933594 192.339844 234.792969 C 192.28125 234.65625 192.253906 234.511719 192.253906 234.359375 L 192.253906 59.902344 L 172.445312 77.808594 L 172.445312 125.527344 C 172.445312 125.675781 172.417969 125.820312 172.359375 125.960938 C 172.304688 126.097656 172.222656 126.222656 172.113281 126.328125 C 172.007812 126.433594 171.886719 126.515625 171.746094 126.574219 C 171.609375 126.628906 171.464844 126.660156 171.316406 126.660156 C 171.164062 126.660156 171.019531 126.628906 170.882812 126.574219 C 170.742188 126.515625 170.621094 126.433594 170.515625 126.328125 C 170.40625 126.222656 170.324219 126.097656 170.269531 125.960938 C 170.210938 125.820312 170.183594 125.675781 170.183594 125.527344 L 170.183594 77.304688 C 170.183594 76.96875 170.304688 76.691406 170.554688 76.464844 L 192.625 56.511719 C 192.789062 56.363281 192.984375 56.269531 193.207031 56.234375 C 193.425781 56.199219 193.640625 56.226562 193.84375 56.316406 C 194.046875 56.40625 194.210938 56.546875 194.332031 56.734375 C 194.457031 56.921875 194.515625 57.128906 194.515625 57.351562 L 194.515625 234.359375 C 194.515625 234.511719 194.488281 234.65625 194.429688 234.792969 C 194.371094 234.933594 194.292969 235.054688 194.183594 235.160156 C 194.078125 235.265625 193.957031 235.347656 193.816406 235.40625 C 193.679688 235.464844 193.535156 235.492188 193.382812 235.492188 Z M 193.382812 235.492188 " fill-opacity="1" fill-rule="nonzero"/></g><g clip-path="url(#bbaea2a316)"><path fill="#0082a5" d="M 193.382812 235.492188 L 177.144531 235.492188 C 176.996094 235.492188 176.851562 235.464844 176.710938 235.40625 C 176.574219 235.347656 176.453125 235.265625 176.34375 235.160156 C 176.238281 235.054688 176.15625 234.933594 176.101562 234.792969 C 176.042969 234.65625 176.011719 234.511719 176.011719 234.359375 C 176.011719 234.210938 176.042969 234.066406 176.101562 233.925781 C 176.15625 233.789062 176.238281 233.667969 176.34375 233.558594 C 176.453125 233.453125 176.574219 233.371094 176.710938 233.316406 C 176.851562 233.257812 176.996094 233.230469 177.144531 233.230469 L 193.382812 233.230469 C 193.535156 233.230469 193.679688 233.257812 193.816406 233.316406 C 193.957031 233.371094 194.078125 233.453125 194.183594 233.558594 C 194.289062 233.667969 194.371094 233.789062 194.429688 233.925781 C 194.488281 234.066406 194.515625 234.210938 194.515625 234.359375 C 194.515625 234.511719 194.488281 234.65625 194.429688 234.792969 C 194.371094 234.933594 194.289062 235.054688 194.183594 235.160156 C 194.078125 235.265625 193.957031 235.347656 193.816406 235.40625 C 193.679688 235.464844 193.535156 235.492188 193.382812 235.492188 Z M 193.382812 235.492188 " fill-opacity="1" fill-rule="nonzero"/></g><g clip-path="url(#cccfe28795)"><path fill="#0082a5" d="M 220.019531 235.492188 L 193.382812 235.492188 C 193.234375 235.492188 193.089844 235.464844 192.949219 235.40625 C 192.8125 235.347656 192.691406 235.265625 192.582031 235.160156 C 192.476562 235.054688 192.394531 234.933594 192.339844 234.792969 C 192.28125 234.65625 192.253906 234.511719 192.253906 234.359375 C 192.253906 234.210938 192.28125 234.066406 192.339844 233.925781 C 192.394531 233.789062 192.476562 233.667969 192.582031 233.558594 C 192.691406 233.453125 192.8125 233.371094 192.949219 233.316406 C 193.089844 233.257812 193.234375 233.230469 193.382812 233.230469 L 218.886719 233.230469 L 218.886719 77.871094 L 194.515625 59.613281 L 194.515625 154.382812 C 194.515625 154.53125 194.488281 154.675781 194.429688 154.816406 C 194.371094 154.953125 194.289062 155.074219 194.183594 155.183594 C 194.078125 155.289062 193.957031 155.371094 193.816406 155.425781 C 193.679688 155.484375 193.535156 155.511719 193.382812 155.511719 C 193.234375 155.511719 193.089844 155.484375 192.949219 155.425781 C 192.8125 155.371094 192.691406 155.289062 192.582031 155.183594 C 192.476562 155.074219 192.394531 154.953125 192.339844 154.816406 C 192.28125 154.675781 192.253906 154.53125 192.253906 154.382812 L 192.253906 57.351562 C 192.253906 56.886719 192.460938 56.546875 192.878906 56.339844 C 193.292969 56.128906 193.691406 56.164062 194.0625 56.445312 L 220.699219 76.398438 C 221 76.625 221.152344 76.925781 221.152344 77.304688 L 221.152344 234.359375 C 221.152344 234.511719 221.125 234.65625 221.066406 234.792969 C 221.007812 234.933594 220.925781 235.054688 220.820312 235.160156 C 220.714844 235.265625 220.59375 235.347656 220.453125 235.40625 C 220.316406 235.464844 220.171875 235.492188 220.019531 235.492188 Z M 220.019531 235.492188 " fill-opacity="1" fill-rule="nonzero"/></g><g clip-path="url(#52bf703c13)"><path fill="#ff773b" d="M 293.96875 235.492188 L 265.734375 235.492188 C 265.585938 235.492188 265.441406 235.464844 265.300781 235.40625 C 265.164062 235.347656 265.039062 235.265625 264.933594 235.160156 C 264.828125 235.054688 264.746094 234.933594 264.6875 234.792969 C 264.628906 234.65625 264.601562 234.511719 264.601562 234.359375 L 264.601562 104.839844 C 264.601562 104.378906 264.804688 104.042969 265.214844 103.835938 C 265.625 103.625 266.015625 103.652344 266.390625 103.917969 L 294.621094 123.960938 C 294.941406 124.1875 295.097656 124.496094 295.097656 124.882812 L 295.097656 234.359375 C 295.097656 234.511719 295.070312 234.65625 295.011719 234.792969 C 294.957031 234.933594 294.875 235.054688 294.769531 235.160156 C 294.660156 235.265625 294.539062 235.347656 294.398438 235.40625 C 294.261719 235.464844 294.117188 235.492188 293.96875 235.492188 Z M 266.867188 233.230469 L 292.835938 233.230469 L 292.835938 125.46875 L 266.867188 107.03125 Z M 266.867188 233.230469 " fill-opacity="1" fill-rule="nonzero"/></g><g clip-path="url(#39ed9d4068)"><path fill="#ff773b" d="M 265.734375 235.492188 L 240.394531 235.492188 C 240.246094 235.492188 240.101562 235.464844 239.964844 235.40625 C 239.824219 235.347656 239.703125 235.265625 239.59375 235.160156 C 239.488281 235.054688 239.40625 234.933594 239.351562 234.792969 C 239.292969 234.65625 239.265625 234.511719 239.265625 234.359375 C 239.265625 234.210938 239.292969 234.066406 239.351562 233.925781 C 239.40625 233.789062 239.488281 233.667969 239.59375 233.558594 C 239.703125 233.453125 239.824219 233.371094 239.964844 233.316406 C 240.101562 233.257812 240.246094 233.230469 240.394531 233.230469 L 264.601562 233.230469 L 264.601562 107.179688 L 241.527344 125.433594 L 241.527344 141.964844 C 241.527344 142.113281 241.5 142.257812 241.441406 142.398438 C 241.382812 142.535156 241.304688 142.660156 241.195312 142.765625 C 241.089844 142.871094 240.96875 142.953125 240.828125 143.011719 C 240.691406 143.066406 240.546875 143.097656 240.394531 143.097656 C 240.246094 143.097656 240.101562 143.066406 239.964844 143.011719 C 239.824219 142.953125 239.703125 142.871094 239.59375 142.765625 C 239.488281 142.660156 239.40625 142.535156 239.351562 142.398438 C 239.292969 142.257812 239.265625 142.113281 239.265625 141.964844 L 239.265625 124.882812 C 239.265625 124.519531 239.40625 124.222656 239.691406 124 L 265.03125 103.953125 C 265.199219 103.820312 265.394531 103.738281 265.609375 103.714844 C 265.824219 103.691406 266.03125 103.726562 266.226562 103.820312 C 266.421875 103.914062 266.578125 104.054688 266.695312 104.238281 C 266.808594 104.421875 266.867188 104.621094 266.867188 104.839844 L 266.867188 234.359375 C 266.867188 234.511719 266.835938 234.65625 266.78125 234.792969 C 266.722656 234.933594 266.640625 235.054688 266.535156 235.160156 C 266.429688 235.265625 266.304688 235.347656 266.167969 235.40625 C 266.027344 235.464844 265.882812 235.492188 265.734375 235.492188 Z M 265.734375 235.492188 " fill-opacity="1" fill-rule="nonzero"/></g><g clip-path="url(#1bce247f49)"><path fill="#fcd000" d="M 155.851562 235.492188 L 113.140625 235.492188 C 112.988281 235.492188 112.84375 235.464844 112.707031 235.40625 C 112.566406 235.347656 112.445312 235.265625 112.339844 235.160156 C 112.234375 235.054688 112.152344 234.933594 112.09375 234.792969 C 112.035156 234.65625 112.007812 234.511719 112.007812 234.359375 C 112.007812 234.210938 112.035156 234.066406 112.09375 233.925781 C 112.152344 233.789062 112.234375 233.667969 112.339844 233.558594 C 112.445312 233.453125 112.566406 233.371094 112.707031 233.316406 C 112.84375 233.257812 112.988281 233.230469 113.140625 233.230469 L 154.71875 233.230469 L 154.71875 112.222656 L 114.273438 133.058594 L 114.273438 184.882812 C 114.273438 185.03125 114.242188 185.175781 114.1875 185.316406 C 114.128906 185.453125 114.046875 185.578125 113.941406 185.683594 C 113.835938 185.789062 113.710938 185.871094 113.574219 185.929688 C 113.433594 185.984375 113.289062 186.015625 113.140625 186.015625 C 112.988281 186.015625 112.84375 185.984375 112.707031 185.929688 C 112.566406 185.871094 112.445312 185.789062 112.339844 185.683594 C 112.234375 185.578125 112.152344 185.453125 112.09375 185.316406 C 112.035156 185.175781 112.007812 185.03125 112.007812 184.882812 L 112.007812 132.367188 C 112.007812 131.90625 112.210938 131.574219 112.621094 131.363281 L 155.332031 109.359375 C 155.417969 109.316406 155.511719 109.28125 155.605469 109.261719 C 155.699219 109.242188 155.796875 109.230469 155.894531 109.234375 C 155.988281 109.238281 156.085938 109.253906 156.175781 109.28125 C 156.269531 109.308594 156.359375 109.347656 156.441406 109.398438 C 156.523438 109.449219 156.597656 109.511719 156.667969 109.578125 C 156.734375 109.648438 156.792969 109.726562 156.839844 109.8125 C 156.886719 109.894531 156.921875 109.984375 156.949219 110.078125 C 156.972656 110.171875 156.984375 110.269531 156.984375 110.367188 L 156.984375 234.359375 C 156.984375 234.511719 156.957031 234.65625 156.898438 234.792969 C 156.839844 234.933594 156.757812 235.054688 156.652344 235.160156 C 156.546875 235.265625 156.425781 235.347656 156.285156 235.40625 C 156.148438 235.464844 156.003906 235.492188 155.851562 235.492188 Z M 155.851562 235.492188 " fill-opacity="1" fill-rule="nonzero"/></g><g clip-path="url(#89b569abe3)"><path fill="#fcd000" d="M 178.292969 235.492188 L 155.851562 235.492188 C 155.703125 235.492188 155.558594 235.464844 155.417969 235.40625 C 155.28125 235.347656 155.15625 235.265625 155.050781 235.160156 C 154.945312 235.054688 154.863281 234.933594 154.804688 234.792969 C 154.75 234.65625 154.71875 234.511719 154.71875 234.359375 L 154.71875 110.367188 C 154.71875 110.140625 154.785156 109.929688 154.910156 109.742188 C 155.035156 109.550781 155.203125 109.414062 155.414062 109.324219 C 155.625 109.238281 155.839844 109.214844 156.066406 109.257812 C 156.289062 109.296875 156.480469 109.398438 156.644531 109.558594 L 179.085938 131.558594 C 179.3125 131.78125 179.425781 132.050781 179.425781 132.367188 L 179.425781 234.359375 C 179.425781 234.511719 179.398438 234.65625 179.339844 234.792969 C 179.28125 234.933594 179.199219 235.054688 179.09375 235.160156 C 178.988281 235.265625 178.867188 235.347656 178.726562 235.40625 C 178.585938 235.464844 178.445312 235.492188 178.292969 235.492188 Z M 156.984375 233.230469 L 177.160156 233.230469 L 177.160156 132.84375 L 156.984375 113.0625 Z M 156.984375 233.230469 " fill-opacity="1" fill-rule="nonzero"/></g><g clip-path="url(#a8b9a7c1f9)"><path fill="#0cbc8e" d="M 230.261719 235.492188 L 187.550781 235.492188 C 187.398438 235.492188 187.253906 235.464844 187.117188 235.40625 C 186.976562 235.347656 186.855469 235.265625 186.75 235.160156 C 186.644531 235.054688 186.5625 234.933594 186.503906 234.792969 C 186.445312 234.65625 186.417969 234.511719 186.417969 234.359375 L 186.417969 157.675781 C 186.417969 157.273438 186.585938 156.960938 186.917969 156.734375 L 229.628906 128.089844 C 230.007812 127.835938 230.394531 127.816406 230.792969 128.03125 C 231.195312 128.242188 231.394531 128.574219 231.394531 129.027344 L 231.394531 234.359375 C 231.394531 234.511719 231.367188 234.65625 231.308594 234.792969 C 231.25 234.933594 231.167969 235.054688 231.0625 235.160156 C 230.957031 235.265625 230.835938 235.347656 230.695312 235.40625 C 230.554688 235.464844 230.410156 235.492188 230.261719 235.492188 Z M 188.683594 233.230469 L 229.128906 233.230469 L 229.128906 131.148438 L 188.683594 158.277344 Z M 188.683594 233.230469 " fill-opacity="1" fill-rule="nonzero"/></g><g clip-path="url(#83e30f30dc)"><path fill="#0cbc8e" d="M 252.703125 235.492188 L 230.261719 235.492188 C 230.113281 235.492188 229.96875 235.464844 229.828125 235.40625 C 229.691406 235.347656 229.566406 235.265625 229.460938 235.160156 C 229.355469 235.054688 229.273438 234.933594 229.214844 234.792969 C 229.160156 234.65625 229.128906 234.511719 229.128906 234.359375 L 229.128906 129.027344 C 229.128906 128.785156 229.199219 128.566406 229.339844 128.371094 C 229.480469 128.175781 229.664062 128.039062 229.890625 127.957031 C 230.121094 127.878906 230.351562 127.875 230.582031 127.941406 C 230.8125 128.011719 231.003906 128.140625 231.152344 128.328125 L 253.59375 156.976562 C 253.753906 157.183594 253.835938 157.414062 253.835938 157.675781 L 253.835938 234.359375 C 253.835938 234.511719 253.808594 234.65625 253.75 234.792969 C 253.691406 234.933594 253.609375 235.054688 253.503906 235.160156 C 253.398438 235.265625 253.273438 235.347656 253.136719 235.40625 C 252.996094 235.464844 252.851562 235.492188 252.703125 235.492188 Z M 231.394531 233.230469 L 251.570312 233.230469 L 251.570312 158.066406 L 231.394531 132.308594 Z M 231.394531 233.230469 " fill-opacity="1" fill-rule="nonzero"/></g><g clip-path="url(#e4b57406a9)"><path fill="#0cbc8e" d="M 167.074219 235.492188 L 89.011719 235.492188 C 88.863281 235.492188 88.71875 235.464844 88.578125 235.40625 C 88.441406 235.347656 88.316406 235.265625 88.210938 235.160156 C 88.105469 235.054688 88.023438 234.933594 87.964844 234.792969 C 87.910156 234.65625 87.878906 234.511719 87.878906 234.359375 L 87.878906 177.457031 C 87.878906 177.078125 88.035156 176.773438 88.339844 176.546875 C 88.644531 176.320312 88.980469 176.261719 89.34375 176.378906 L 167.40625 200.394531 C 167.644531 200.464844 167.835938 200.601562 167.984375 200.800781 C 168.132812 201.003906 168.207031 201.226562 168.207031 201.476562 L 168.207031 234.359375 C 168.207031 234.511719 168.175781 234.65625 168.121094 234.792969 C 168.0625 234.933594 167.980469 235.054688 167.875 235.160156 C 167.769531 235.265625 167.644531 235.347656 167.507812 235.40625 C 167.367188 235.464844 167.222656 235.492188 167.074219 235.492188 Z M 90.144531 233.230469 L 165.941406 233.230469 L 165.941406 202.308594 L 90.144531 178.992188 Z M 90.144531 233.230469 " fill-opacity="1" fill-rule="nonzero"/></g><g clip-path="url(#038dfa3b0c)"><path fill="#0cbc8e" d="M 89.011719 235.492188 L 57.246094 235.492188 C 57.097656 235.492188 56.953125 235.464844 56.8125 235.40625 C 56.675781 235.347656 56.554688 235.265625 56.445312 235.160156 C 56.339844 235.054688 56.257812 234.933594 56.203125 234.792969 C 56.144531 234.65625 56.113281 234.511719 56.117188 234.359375 L 56.117188 201.476562 C 56.113281 201.101562 56.265625 200.800781 56.5625 200.574219 L 88.328125 176.558594 C 88.703125 176.273438 89.097656 176.238281 89.515625 176.445312 C 89.933594 176.652344 90.144531 176.992188 90.144531 177.457031 L 90.144531 234.359375 C 90.144531 234.511719 90.117188 234.65625 90.058594 234.792969 C 90 234.933594 89.917969 235.054688 89.8125 235.160156 C 89.707031 235.265625 89.585938 235.347656 89.445312 235.40625 C 89.308594 235.464844 89.164062 235.492188 89.011719 235.492188 Z M 58.378906 233.230469 L 87.878906 233.230469 L 87.878906 179.734375 L 58.378906 202.039062 Z M 58.378906 233.230469 " fill-opacity="1" fill-rule="nonzero"/></g><g clip-path="url(#2b9eafcbec)"><path fill="#d84aa9" d="M 302.515625 235.492188 L 257.925781 235.492188 C 257.777344 235.492188 257.632812 235.464844 257.492188 235.40625 C 257.355469 235.347656 257.234375 235.265625 257.125 235.160156 C 257.019531 235.054688 256.9375 234.933594 256.882812 234.792969 C 256.824219 234.65625 256.796875 234.511719 256.796875 234.359375 L 256.796875 201.476562 C 256.796875 201.238281 256.863281 201.023438 257 200.828125 C 257.132812 200.632812 257.3125 200.496094 257.535156 200.414062 L 302.125 184.003906 C 302.496094 183.863281 302.84375 183.90625 303.164062 184.136719 C 303.488281 184.359375 303.648438 184.671875 303.648438 185.0625 L 303.648438 234.359375 C 303.648438 234.511719 303.621094 234.65625 303.5625 234.792969 C 303.503906 234.933594 303.421875 235.054688 303.316406 235.160156 C 303.210938 235.265625 303.089844 235.347656 302.949219 235.40625 C 302.8125 235.464844 302.667969 235.492188 302.515625 235.492188 Z M 259.058594 233.230469 L 301.382812 233.230469 L 301.382812 186.6875 L 259.058594 202.265625 Z M 259.058594 233.230469 " fill-opacity="1" fill-rule="nonzero"/></g><g clip-path="url(#4c84fd5373)"><path fill="#d84aa9" d="M 318.160156 235.492188 L 302.515625 235.492188 C 302.367188 235.492188 302.222656 235.464844 302.082031 235.40625 C 301.945312 235.347656 301.820312 235.265625 301.714844 235.160156 C 301.609375 235.054688 301.527344 234.933594 301.46875 234.792969 C 301.414062 234.65625 301.382812 234.511719 301.382812 234.359375 L 301.382812 185.0625 C 301.382812 184.832031 301.449219 184.621094 301.578125 184.429688 C 301.710938 184.238281 301.882812 184.101562 302.097656 184.015625 C 302.3125 183.925781 302.53125 183.90625 302.757812 183.957031 C 302.984375 184.003906 303.175781 184.113281 303.335938 184.285156 L 318.980469 200.695312 C 319.191406 200.914062 319.292969 201.171875 319.292969 201.476562 L 319.292969 234.359375 C 319.292969 234.511719 319.265625 234.65625 319.207031 234.792969 C 319.152344 234.933594 319.070312 235.054688 318.960938 235.160156 C 318.855469 235.265625 318.734375 235.347656 318.59375 235.40625 C 318.457031 235.464844 318.3125 235.492188 318.160156 235.492188 Z M 303.648438 233.230469 L 317.03125 233.230469 L 317.03125 201.929688 L 303.648438 187.894531 Z M 303.648438 233.230469 " fill-opacity="1" fill-rule="nonzero"/></g><g fill="#0082a5" fill-opacity="1"><g transform="translate(121.718599, 279.674346)"><g><path d="M 13.703125 0.5 C 11.929688 0.5 10.289062 0.175781 8.78125 -0.46875 C 7.269531 -1.113281 5.957031 -2 4.84375 -3.125 C 3.726562 -4.25 2.851562 -5.570312 2.21875 -7.09375 C 1.582031 -8.625 1.265625 -10.273438 1.265625 -12.046875 C 1.265625 -13.828125 1.582031 -15.484375 2.21875 -17.015625 C 2.851562 -18.546875 3.726562 -19.875 4.84375 -21 C 5.957031 -22.132812 7.269531 -23.019531 8.78125 -23.65625 C 10.289062 -24.289062 11.929688 -24.609375 13.703125 -24.609375 C 15.453125 -24.609375 17.085938 -24.289062 18.609375 -23.65625 C 20.128906 -23.019531 21.445312 -22.132812 22.5625 -21 C 23.6875 -19.875 24.566406 -18.546875 25.203125 -17.015625 C 25.835938 -15.484375 26.15625 -13.828125 26.15625 -12.046875 C 26.15625 -10.273438 25.835938 -8.625 25.203125 -7.09375 C 24.566406 -5.570312 23.6875 -4.25 22.5625 -3.125 C 21.445312 -2 20.128906 -1.113281 18.609375 -0.46875 C 17.085938 0.175781 15.453125 0.5 13.703125 0.5 Z M 13.703125 -4.609375 C 14.710938 -4.609375 15.632812 -4.789062 16.46875 -5.15625 C 17.3125 -5.53125 18.035156 -6.050781 18.640625 -6.71875 C 19.253906 -7.394531 19.734375 -8.1875 20.078125 -9.09375 C 20.429688 -10.007812 20.609375 -10.992188 20.609375 -12.046875 C 20.609375 -13.097656 20.429688 -14.078125 20.078125 -14.984375 C 19.734375 -15.898438 19.253906 -16.6875 18.640625 -17.34375 C 18.035156 -18.007812 17.3125 -18.535156 16.46875 -18.921875 C 15.632812 -19.304688 14.710938 -19.5 13.703125 -19.5 C 12.691406 -19.5 11.765625 -19.304688 10.921875 -18.921875 C 10.085938 -18.535156 9.363281 -18.007812 8.75 -17.34375 C 8.144531 -16.6875 7.664062 -15.898438 7.3125 -14.984375 C 6.96875 -14.078125 6.796875 -13.097656 6.796875 -12.046875 C 6.796875 -10.992188 6.96875 -10.007812 7.3125 -9.09375 C 7.664062 -8.1875 8.144531 -7.398438 8.75 -6.734375 C 9.363281 -6.078125 10.085938 -5.554688 10.921875 -5.171875 C 11.765625 -4.796875 12.691406 -4.609375 13.703125 -4.609375 Z M 13.703125 -4.609375 "/></g></g></g><g fill="#0082a5" fill-opacity="1"><g transform="translate(150.304569, 279.674346)"><g><path d="M 2.703125 -24.53125 L 5.390625 -24.53125 L 15.328125 -11.46875 L 25.140625 -24.53125 L 27.84375 -24.53125 L 27.84375 0 L 22.59375 0 L 22.59375 -13.421875 L 16.296875 -5.109375 L 14.203125 -5.109375 L 7.953125 -13.375 L 7.953125 0 L 2.703125 0 Z M 2.703125 -24.53125 "/></g></g></g><g fill="#0082a5" fill-opacity="1"><g transform="translate(182.018731, 279.674346)"><g><path d="M 12.34375 0.5 C 10.894531 0.5 9.570312 0.25 8.375 -0.25 C 7.175781 -0.75 6.144531 -1.445312 5.28125 -2.34375 C 4.425781 -3.25 3.75 -4.332031 3.25 -5.59375 C 2.757812 -6.851562 2.515625 -8.226562 2.515625 -9.71875 L 2.515625 -24.09375 L 7.765625 -24.09375 L 7.765625 -9.78125 C 7.765625 -8.175781 8.175781 -6.910156 9 -5.984375 C 9.832031 -5.066406 10.929688 -4.609375 12.296875 -4.609375 C 13.660156 -4.609375 14.765625 -5.066406 15.609375 -5.984375 C 16.453125 -6.910156 16.875 -8.175781 16.875 -9.78125 L 16.875 -24.09375 L 22.125 -24.09375 L 22.125 -9.71875 C 22.125 -8.226562 21.875 -6.851562 21.375 -5.59375 C 20.882812 -4.332031 20.207031 -3.25 19.34375 -2.34375 C 18.488281 -1.445312 17.457031 -0.75 16.25 -0.25 C 15.050781 0.25 13.75 0.5 12.34375 0.5 Z M 12.34375 0.5 "/></g></g></g><g fill="#0082a5" fill-opacity="1"><g transform="translate(207.836034, 279.674346)"><g><path d="M 2.703125 -24.09375 L 10.25 -24.09375 C 11.5 -24.09375 12.65625 -23.898438 13.71875 -23.515625 C 14.789062 -23.140625 15.707031 -22.601562 16.46875 -21.90625 C 17.238281 -21.207031 17.835938 -20.378906 18.265625 -19.421875 C 18.703125 -18.460938 18.921875 -17.421875 18.921875 -16.296875 C 18.921875 -14.859375 18.570312 -13.554688 17.875 -12.390625 C 17.175781 -11.222656 16.21875 -10.316406 15 -9.671875 L 20.640625 0 L 14.53125 0 L 9.859375 -8.453125 L 7.953125 -8.453125 L 7.953125 0 L 2.703125 0 Z M 10 -13.09375 C 11.125 -13.09375 12.015625 -13.375 12.671875 -13.9375 C 13.335938 -14.5 13.671875 -15.273438 13.671875 -16.265625 C 13.671875 -17.242188 13.332031 -17.972656 12.65625 -18.453125 C 11.988281 -18.929688 11.101562 -19.171875 10 -19.171875 L 7.953125 -19.171875 L 7.953125 -13.09375 Z M 10 -13.09375 "/></g></g></g><g fill="#0082a5" fill-opacity="1"><g transform="translate(230.201517, 279.674346)"><g><path d="M 9.859375 -24.53125 L 13.203125 -24.53125 L 22.703125 0 L 17.15625 0 L 15.6875 -4.0625 L 7.375 -4.0625 L 5.9375 0 L 0.359375 0 Z M 14.0625 -8.59375 L 11.546875 -15.6875 L 9 -8.59375 Z M 14.0625 -8.59375 "/></g></g></g><g fill="#726f6f" fill-opacity="1"><g transform="translate(112.674833, 312.064277)"><g><path d="M 6.890625 0.296875 C 6.296875 0.296875 5.738281 0.1875 5.21875 -0.03125 C 4.707031 -0.25 4.269531 -0.554688 3.90625 -0.953125 L 3.90625 0 L 1.171875 0 L 1.171875 -15.046875 L 4 -15.046875 L 4 -8.828125 C 4.375 -9.191406 4.804688 -9.484375 5.296875 -9.703125 C 5.796875 -9.929688 6.347656 -10.046875 6.953125 -10.046875 C 7.609375 -10.046875 8.21875 -9.914062 8.78125 -9.65625 C 9.34375 -9.394531 9.832031 -9.03125 10.25 -8.5625 C 10.675781 -8.09375 11.007812 -7.546875 11.25 -6.921875 C 11.5 -6.296875 11.625 -5.613281 11.625 -4.875 C 11.625 -4.15625 11.5 -3.476562 11.25 -2.84375 C 11.007812 -2.21875 10.675781 -1.671875 10.25 -1.203125 C 9.832031 -0.742188 9.332031 -0.378906 8.75 -0.109375 C 8.175781 0.160156 7.554688 0.296875 6.890625 0.296875 Z M 6.3125 -2.296875 C 6.65625 -2.296875 6.976562 -2.359375 7.28125 -2.484375 C 7.582031 -2.617188 7.84375 -2.800781 8.0625 -3.03125 C 8.28125 -3.269531 8.453125 -3.546875 8.578125 -3.859375 C 8.710938 -4.171875 8.78125 -4.507812 8.78125 -4.875 C 8.78125 -5.238281 8.710938 -5.578125 8.578125 -5.890625 C 8.453125 -6.203125 8.28125 -6.472656 8.0625 -6.703125 C 7.84375 -6.941406 7.582031 -7.128906 7.28125 -7.265625 C 6.976562 -7.398438 6.65625 -7.46875 6.3125 -7.46875 C 5.957031 -7.46875 5.628906 -7.398438 5.328125 -7.265625 C 5.035156 -7.128906 4.785156 -6.941406 4.578125 -6.703125 C 4.367188 -6.472656 4.203125 -6.203125 4.078125 -5.890625 C 3.960938 -5.578125 3.90625 -5.238281 3.90625 -4.875 C 3.90625 -4.507812 3.960938 -4.171875 4.078125 -3.859375 C 4.203125 -3.546875 4.367188 -3.269531 4.578125 -3.03125 C 4.785156 -2.800781 5.035156 -2.617188 5.328125 -2.484375 C 5.628906 -2.359375 5.957031 -2.296875 6.3125 -2.296875 Z M 6.3125 -2.296875 "/></g></g></g><g fill="#726f6f" fill-opacity="1"><g transform="translate(127.288134, 312.064277)"><g><path d="M 5.890625 0.296875 C 5.117188 0.296875 4.410156 0.171875 3.765625 -0.078125 C 3.117188 -0.335938 2.5625 -0.691406 2.09375 -1.140625 C 1.632812 -1.597656 1.273438 -2.140625 1.015625 -2.765625 C 0.765625 -3.390625 0.640625 -4.078125 0.640625 -4.828125 C 0.640625 -5.578125 0.765625 -6.269531 1.015625 -6.90625 C 1.273438 -7.539062 1.628906 -8.09375 2.078125 -8.5625 C 2.523438 -9.03125 3.0625 -9.394531 3.6875 -9.65625 C 4.3125 -9.914062 4.988281 -10.046875 5.71875 -10.046875 C 6.414062 -10.046875 7.054688 -9.925781 7.640625 -9.6875 C 8.234375 -9.457031 8.75 -9.128906 9.1875 -8.703125 C 9.625 -8.285156 9.960938 -7.785156 10.203125 -7.203125 C 10.453125 -6.628906 10.578125 -5.992188 10.578125 -5.296875 C 10.578125 -5.046875 10.566406 -4.832031 10.546875 -4.65625 C 10.535156 -4.488281 10.507812 -4.285156 10.46875 -4.046875 L 3.578125 -4.046875 C 3.722656 -3.453125 4.015625 -2.984375 4.453125 -2.640625 C 4.898438 -2.304688 5.472656 -2.140625 6.171875 -2.140625 C 6.660156 -2.140625 7.125 -2.226562 7.5625 -2.40625 C 8.007812 -2.59375 8.421875 -2.894531 8.796875 -3.3125 L 10.296875 -1.625 C 9.753906 -0.988281 9.097656 -0.507812 8.328125 -0.1875 C 7.566406 0.132812 6.753906 0.296875 5.890625 0.296875 Z M 7.765625 -6.015625 C 7.628906 -6.609375 7.378906 -7.0625 7.015625 -7.375 C 6.660156 -7.6875 6.21875 -7.84375 5.6875 -7.84375 C 5.132812 -7.84375 4.671875 -7.679688 4.296875 -7.359375 C 3.921875 -7.035156 3.671875 -6.585938 3.546875 -6.015625 Z M 7.765625 -6.015625 "/></g></g></g><g fill="#726f6f" fill-opacity="1"><g transform="translate(140.862157, 312.064277)"><g><path d="M 5.34375 0.296875 C 4.195312 0.296875 3.320312 -0.0195312 2.71875 -0.65625 C 2.125 -1.300781 1.828125 -2.210938 1.828125 -3.390625 L 1.828125 -7.46875 L 0.3125 -7.46875 L 0.3125 -9.75 L 1.828125 -9.75 L 1.828125 -12.515625 L 4.671875 -12.515625 L 4.671875 -9.75 L 7.359375 -9.75 L 7.359375 -7.46875 L 4.671875 -7.46875 L 4.671875 -3.625 C 4.671875 -3.175781 4.757812 -2.820312 4.9375 -2.5625 C 5.125 -2.3125 5.421875 -2.1875 5.828125 -2.1875 C 6.285156 -2.1875 6.738281 -2.367188 7.1875 -2.734375 L 8.3125 -0.84375 C 7.570312 -0.0820312 6.582031 0.296875 5.34375 0.296875 Z M 5.34375 0.296875 "/></g></g></g><g fill="#726f6f" fill-opacity="1"><g transform="translate(151.742592, 312.064277)"><g><path d="M 5.34375 0.296875 C 4.195312 0.296875 3.320312 -0.0195312 2.71875 -0.65625 C 2.125 -1.300781 1.828125 -2.210938 1.828125 -3.390625 L 1.828125 -7.46875 L 0.3125 -7.46875 L 0.3125 -9.75 L 1.828125 -9.75 L 1.828125 -12.515625 L 4.671875 -12.515625 L 4.671875 -9.75 L 7.359375 -9.75 L 7.359375 -7.46875 L 4.671875 -7.46875 L 4.671875 -3.625 C 4.671875 -3.175781 4.757812 -2.820312 4.9375 -2.5625 C 5.125 -2.3125 5.421875 -2.1875 5.828125 -2.1875 C 6.285156 -2.1875 6.738281 -2.367188 7.1875 -2.734375 L 8.3125 -0.84375 C 7.570312 -0.0820312 6.582031 0.296875 5.34375 0.296875 Z M 5.34375 0.296875 "/></g></g></g><g fill="#726f6f" fill-opacity="1"><g transform="translate(162.623031, 312.064277)"><g><path d="M 5.890625 0.296875 C 5.117188 0.296875 4.410156 0.171875 3.765625 -0.078125 C 3.117188 -0.335938 2.5625 -0.691406 2.09375 -1.140625 C 1.632812 -1.597656 1.273438 -2.140625 1.015625 -2.765625 C 0.765625 -3.390625 0.640625 -4.078125 0.640625 -4.828125 C 0.640625 -5.578125 0.765625 -6.269531 1.015625 -6.90625 C 1.273438 -7.539062 1.628906 -8.09375 2.078125 -8.5625 C 2.523438 -9.03125 3.0625 -9.394531 3.6875 -9.65625 C 4.3125 -9.914062 4.988281 -10.046875 5.71875 -10.046875 C 6.414062 -10.046875 7.054688 -9.925781 7.640625 -9.6875 C 8.234375 -9.457031 8.75 -9.128906 9.1875 -8.703125 C 9.625 -8.285156 9.960938 -7.785156 10.203125 -7.203125 C 10.453125 -6.628906 10.578125 -5.992188 10.578125 -5.296875 C 10.578125 -5.046875 10.566406 -4.832031 10.546875 -4.65625 C 10.535156 -4.488281 10.507812 -4.285156 10.46875 -4.046875 L 3.578125 -4.046875 C 3.722656 -3.453125 4.015625 -2.984375 4.453125 -2.640625 C 4.898438 -2.304688 5.472656 -2.140625 6.171875 -2.140625 C 6.660156 -2.140625 7.125 -2.226562 7.5625 -2.40625 C 8.007812 -2.59375 8.421875 -2.894531 8.796875 -3.3125 L 10.296875 -1.625 C 9.753906 -0.988281 9.097656 -0.507812 8.328125 -0.1875 C 7.566406 0.132812 6.753906 0.296875 5.890625 0.296875 Z M 7.765625 -6.015625 C 7.628906 -6.609375 7.378906 -7.0625 7.015625 -7.375 C 6.660156 -7.6875 6.21875 -7.84375 5.6875 -7.84375 C 5.132812 -7.84375 4.671875 -7.679688 4.296875 -7.359375 C 3.921875 -7.035156 3.671875 -6.585938 3.546875 -6.015625 Z M 7.765625 -6.015625 "/></g></g></g><g fill="#726f6f" fill-opacity="1"><g transform="translate(176.197056, 312.064277)"><g><path d="M 1.171875 -9.75 L 3.90625 -9.75 L 3.90625 -8.5 C 4.46875 -9.53125 5.320312 -10.046875 6.46875 -10.046875 C 6.625 -10.046875 6.769531 -10.039062 6.90625 -10.03125 C 7.050781 -10.019531 7.160156 -10 7.234375 -9.96875 L 6.890625 -6.953125 C 6.523438 -7.078125 6.1875 -7.140625 5.875 -7.140625 C 5.28125 -7.140625 4.816406 -6.957031 4.484375 -6.59375 C 4.160156 -6.226562 4 -5.726562 4 -5.09375 L 4 0 L 1.171875 0 Z M 1.171875 -9.75 "/></g></g></g><g fill="#726f6f" fill-opacity="1"><g transform="translate(185.889752, 312.064277)"><g/></g></g><g fill="#726f6f" fill-opacity="1"><g transform="translate(192.910059, 312.064277)"><g><path d="M 1.90625 -7.46875 L 0.421875 -7.46875 L 0.421875 -9.75 L 1.90625 -9.75 L 1.90625 -11.1875 C 1.90625 -12.394531 2.234375 -13.335938 2.890625 -14.015625 C 3.546875 -14.703125 4.4375 -15.046875 5.5625 -15.046875 C 6.675781 -15.046875 7.640625 -14.679688 8.453125 -13.953125 L 7.046875 -11.984375 C 6.847656 -12.203125 6.648438 -12.351562 6.453125 -12.4375 C 6.265625 -12.53125 6.066406 -12.578125 5.859375 -12.578125 C 5.117188 -12.578125 4.75 -12.125 4.75 -11.21875 L 4.75 -9.75 L 7.5 -9.75 L 7.5 -7.46875 L 4.75 -7.46875 L 4.75 0 L 1.90625 0 Z M 1.90625 -7.46875 "/></g></g></g><g fill="#726f6f" fill-opacity="1"><g transform="translate(202.984529, 312.064277)"><g><path d="M 4.734375 0.296875 C 4.191406 0.296875 3.695312 0.195312 3.25 0 C 2.8125 -0.207031 2.425781 -0.492188 2.09375 -0.859375 C 1.769531 -1.222656 1.515625 -1.644531 1.328125 -2.125 C 1.148438 -2.613281 1.0625 -3.140625 1.0625 -3.703125 L 1.0625 -9.75 L 3.90625 -9.75 L 3.90625 -4.40625 C 3.90625 -3.757812 4.054688 -3.242188 4.359375 -2.859375 C 4.671875 -2.484375 5.097656 -2.296875 5.640625 -2.296875 C 6.179688 -2.296875 6.609375 -2.492188 6.921875 -2.890625 C 7.242188 -3.285156 7.40625 -3.8125 7.40625 -4.46875 L 7.40625 -9.75 L 10.234375 -9.75 L 10.234375 0 L 7.5 0 L 7.5 -1.171875 C 7.144531 -0.703125 6.734375 -0.335938 6.265625 -0.078125 C 5.804688 0.171875 5.296875 0.296875 4.734375 0.296875 Z M 4.734375 0.296875 "/></g></g></g><g fill="#726f6f" fill-opacity="1"><g transform="translate(216.74944, 312.064277)"><g><path d="M 5.34375 0.296875 C 4.195312 0.296875 3.320312 -0.0195312 2.71875 -0.65625 C 2.125 -1.300781 1.828125 -2.210938 1.828125 -3.390625 L 1.828125 -7.46875 L 0.3125 -7.46875 L 0.3125 -9.75 L 1.828125 -9.75 L 1.828125 -12.515625 L 4.671875 -12.515625 L 4.671875 -9.75 L 7.359375 -9.75 L 7.359375 -7.46875 L 4.671875 -7.46875 L 4.671875 -3.625 C 4.671875 -3.175781 4.757812 -2.820312 4.9375 -2.5625 C 5.125 -2.3125 5.421875 -2.1875 5.828125 -2.1875 C 6.285156 -2.1875 6.738281 -2.367188 7.1875 -2.734375 L 8.3125 -0.84375 C 7.570312 -0.0820312 6.582031 0.296875 5.34375 0.296875 Z M 5.34375 0.296875 "/></g></g></g><g fill="#726f6f" fill-opacity="1"><g transform="translate(227.629872, 312.064277)"><g><path d="M 4.734375 0.296875 C 4.191406 0.296875 3.695312 0.195312 3.25 0 C 2.8125 -0.207031 2.425781 -0.492188 2.09375 -0.859375 C 1.769531 -1.222656 1.515625 -1.644531 1.328125 -2.125 C 1.148438 -2.613281 1.0625 -3.140625 1.0625 -3.703125 L 1.0625 -9.75 L 3.90625 -9.75 L 3.90625 -4.40625 C 3.90625 -3.757812 4.054688 -3.242188 4.359375 -2.859375 C 4.671875 -2.484375 5.097656 -2.296875 5.640625 -2.296875 C 6.179688 -2.296875 6.609375 -2.492188 6.921875 -2.890625 C 7.242188 -3.285156 7.40625 -3.8125 7.40625 -4.46875 L 7.40625 -9.75 L 10.234375 -9.75 L 10.234375 0 L 7.5 0 L 7.5 -1.171875 C 7.144531 -0.703125 6.734375 -0.335938 6.265625 -0.078125 C 5.804688 0.171875 5.296875 0.296875 4.734375 0.296875 Z M 4.734375 0.296875 "/></g></g></g><g fill="#726f6f" fill-opacity="1"><g transform="translate(241.394784, 312.064277)"><g><path d="M 1.171875 -9.75 L 3.90625 -9.75 L 3.90625 -8.5 C 4.46875 -9.53125 5.320312 -10.046875 6.46875 -10.046875 C 6.625 -10.046875 6.769531 -10.039062 6.90625 -10.03125 C 7.050781 -10.019531 7.160156 -10 7.234375 -9.96875 L 6.890625 -6.953125 C 6.523438 -7.078125 6.1875 -7.140625 5.875 -7.140625 C 5.28125 -7.140625 4.816406 -6.957031 4.484375 -6.59375 C 4.160156 -6.226562 4 -5.726562 4 -5.09375 L 4 0 L 1.171875 0 Z M 1.171875 -9.75 "/></g></g></g><g fill="#726f6f" fill-opacity="1"><g transform="translate(251.087479, 312.064277)"><g><path d="M 5.890625 0.296875 C 5.117188 0.296875 4.410156 0.171875 3.765625 -0.078125 C 3.117188 -0.335938 2.5625 -0.691406 2.09375 -1.140625 C 1.632812 -1.597656 1.273438 -2.140625 1.015625 -2.765625 C 0.765625 -3.390625 0.640625 -4.078125 0.640625 -4.828125 C 0.640625 -5.578125 0.765625 -6.269531 1.015625 -6.90625 C 1.273438 -7.539062 1.628906 -8.09375 2.078125 -8.5625 C 2.523438 -9.03125 3.0625 -9.394531 3.6875 -9.65625 C 4.3125 -9.914062 4.988281 -10.046875 5.71875 -10.046875 C 6.414062 -10.046875 7.054688 -9.925781 7.640625 -9.6875 C 8.234375 -9.457031 8.75 -9.128906 9.1875 -8.703125 C 9.625 -8.285156 9.960938 -7.785156 10.203125 -7.203125 C 10.453125 -6.628906 10.578125 -5.992188 10.578125 -5.296875 C 10.578125 -5.046875 10.566406 -4.832031 10.546875 -4.65625 C 10.535156 -4.488281 10.507812 -4.285156 10.46875 -4.046875 L 3.578125 -4.046875 C 3.722656 -3.453125 4.015625 -2.984375 4.453125 -2.640625 C 4.898438 -2.304688 5.472656 -2.140625 6.171875 -2.140625 C 6.660156 -2.140625 7.125 -2.226562 7.5625 -2.40625 C 8.007812 -2.59375 8.421875 -2.894531 8.796875 -3.3125 L 10.296875 -1.625 C 9.753906 -0.988281 9.097656 -0.507812 8.328125 -0.1875 C 7.566406 0.132812 6.753906 0.296875 5.890625 0.296875 Z M 7.765625 -6.015625 C 7.628906 -6.609375 7.378906 -7.0625 7.015625 -7.375 C 6.660156 -7.6875 6.21875 -7.84375 5.6875 -7.84375 C 5.132812 -7.84375 4.671875 -7.679688 4.296875 -7.359375 C 3.921875 -7.035156 3.671875 -6.585938 3.546875 -6.015625 Z M 7.765625 -6.015625 "/></g></g></g></svg>