<svg xmlns="http://www.w3.org/2000/svg" xmlns:xlink="http://www.w3.org/1999/xlink" width="500" zoomAndPan="magnify" viewBox="0 0 375 374.999991" height="500" preserveAspectRatio="xMidYMid meet" version="1.0"><defs><g/><clipPath id="ca7e7348b7"><path d="M 173 82.476562 L 193 82.476562 L 193 225.726562 L 173 225.726562 Z M 173 82.476562 " clip-rule="nonzero"/></clipPath><clipPath id="8715c4b0e5"><path d="M 178 223 L 193 223 L 193 225.726562 L 178 225.726562 Z M 178 223 " clip-rule="nonzero"/></clipPath><clipPath id="14573353bf"><path d="M 190 82.476562 L 215 82.476562 L 215 225.726562 L 190 225.726562 Z M 190 82.476562 " clip-rule="nonzero"/></clipPath><clipPath id="3e969130a0"><path d="M 248 120 L 274 120 L 274 225.726562 L 248 225.726562 Z M 248 120 " clip-rule="nonzero"/></clipPath><clipPath id="c339765613"><path d="M 228 120 L 251 120 L 251 225.726562 L 228 225.726562 Z M 228 120 " clip-rule="nonzero"/></clipPath><clipPath id="bf948925b3"><path d="M 126 124 L 163 124 L 163 225.726562 L 126 225.726562 Z M 126 124 " clip-rule="nonzero"/></clipPath><clipPath id="e69dc6379d"><path d="M 161 124 L 181 124 L 181 225.726562 L 161 225.726562 Z M 161 124 " clip-rule="nonzero"/></clipPath><clipPath id="ae033bcc8f"><path d="M 186 139 L 223 139 L 223 225.726562 L 186 225.726562 Z M 186 139 " clip-rule="nonzero"/></clipPath><clipPath id="374d32db65"><path d="M 220 139 L 241 139 L 241 225.726562 L 220 225.726562 Z M 220 139 " clip-rule="nonzero"/></clipPath><clipPath id="56514244fc"><path d="M 107 178 L 172 178 L 172 225.726562 L 107 225.726562 Z M 107 178 " clip-rule="nonzero"/></clipPath><clipPath id="9642a2fd8b"><path d="M 82.339844 178 L 110 178 L 110 225.726562 L 82.339844 225.726562 Z M 82.339844 178 " clip-rule="nonzero"/></clipPath><clipPath id="cfe8d0c315"><path d="M 242 184 L 280 184 L 280 225.726562 L 242 225.726562 Z M 242 184 " clip-rule="nonzero"/></clipPath><clipPath id="ea81783aa7"><path d="M 278 184 L 292.339844 184 L 292.339844 225.726562 L 278 225.726562 Z M 278 184 " clip-rule="nonzero"/></clipPath></defs><rect x="-37.5" width="450" fill="#ffffff" y="-37.499999" height="449.999989" fill-opacity="1"/><rect x="-37.5" width="450" fill="#ffffff" y="-37.499999" height="449.999989" fill-opacity="1"/><g clip-path="url(#ca7e7348b7)"><path fill="#0082a5" d="M 191.894531 225.742188 C 191.644531 225.742188 191.433594 225.65625 191.253906 225.480469 C 191.078125 225.300781 190.992188 225.089844 190.992188 224.839844 L 190.992188 85.417969 L 175.191406 99.726562 L 175.191406 137.863281 C 175.191406 138.113281 175.105469 138.328125 174.929688 138.503906 C 174.75 138.679688 174.539062 138.769531 174.289062 138.769531 C 174.039062 138.769531 173.828125 138.679688 173.652344 138.503906 C 173.472656 138.328125 173.386719 138.113281 173.386719 137.863281 L 173.386719 99.328125 C 173.386719 99.058594 173.484375 98.835938 173.683594 98.65625 L 191.289062 82.707031 C 191.578125 82.445312 191.902344 82.394531 192.261719 82.554688 C 192.617188 82.710938 192.796875 82.988281 192.796875 83.378906 L 192.796875 224.839844 C 192.796875 225.089844 192.710938 225.300781 192.53125 225.480469 C 192.355469 225.65625 192.144531 225.742188 191.894531 225.742188 Z M 191.894531 225.742188 " fill-opacity="1" fill-rule="nonzero"/></g><g clip-path="url(#8715c4b0e5)"><path fill="#0082a5" d="M 191.894531 225.742188 L 178.941406 225.742188 C 178.691406 225.742188 178.476562 225.65625 178.300781 225.480469 C 178.125 225.300781 178.039062 225.089844 178.039062 224.839844 C 178.039062 224.589844 178.125 224.375 178.300781 224.199219 C 178.476562 224.023438 178.691406 223.933594 178.941406 223.933594 L 191.894531 223.933594 C 192.144531 223.933594 192.355469 224.023438 192.53125 224.199219 C 192.710938 224.375 192.796875 224.589844 192.796875 224.839844 C 192.796875 225.089844 192.710938 225.300781 192.53125 225.480469 C 192.355469 225.65625 192.144531 225.742188 191.894531 225.742188 Z M 191.894531 225.742188 " fill-opacity="1" fill-rule="nonzero"/></g><g clip-path="url(#14573353bf)"><path fill="#0082a5" d="M 213.140625 225.742188 L 191.894531 225.742188 C 191.644531 225.742188 191.433594 225.65625 191.253906 225.480469 C 191.078125 225.300781 190.992188 225.089844 190.992188 224.839844 C 190.992188 224.589844 191.078125 224.375 191.253906 224.199219 C 191.433594 224.023438 191.644531 223.933594 191.894531 223.933594 L 212.238281 223.933594 L 212.238281 99.777344 L 192.796875 85.1875 L 192.796875 160.921875 C 192.796875 161.171875 192.710938 161.386719 192.53125 161.5625 C 192.355469 161.738281 192.144531 161.828125 191.894531 161.828125 C 191.644531 161.828125 191.433594 161.738281 191.253906 161.5625 C 191.078125 161.386719 190.992188 161.171875 190.992188 160.921875 L 190.992188 83.378906 C 190.992188 83.007812 191.15625 82.738281 191.488281 82.570312 C 191.824219 82.40625 192.136719 82.433594 192.4375 82.65625 L 213.683594 98.601562 C 213.925781 98.785156 214.042969 99.023438 214.046875 99.328125 L 214.046875 224.839844 C 214.046875 225.089844 213.957031 225.300781 213.78125 225.480469 C 213.605469 225.65625 213.390625 225.742188 213.140625 225.742188 Z M 213.140625 225.742188 " fill-opacity="1" fill-rule="nonzero"/></g><g clip-path="url(#3e969130a0)"><path fill="#ff773b" d="M 272.128906 225.742188 L 249.609375 225.742188 C 249.359375 225.742188 249.144531 225.65625 248.96875 225.480469 C 248.792969 225.300781 248.703125 225.089844 248.703125 224.839844 L 248.703125 121.332031 C 248.703125 120.964844 248.867188 120.695312 249.195312 120.527344 C 249.519531 120.359375 249.832031 120.382812 250.132812 120.59375 L 272.652344 136.613281 C 272.90625 136.792969 273.03125 137.039062 273.03125 137.351562 L 273.03125 224.839844 C 273.03125 225.089844 272.945312 225.300781 272.769531 225.480469 C 272.589844 225.65625 272.378906 225.742188 272.128906 225.742188 Z M 250.511719 223.933594 L 271.226562 223.933594 L 271.226562 137.816406 L 250.511719 123.082031 Z M 250.511719 223.933594 " fill-opacity="1" fill-rule="nonzero"/></g><g clip-path="url(#c339765613)"><path fill="#ff773b" d="M 249.609375 225.742188 L 229.394531 225.742188 C 229.144531 225.742188 228.933594 225.65625 228.757812 225.480469 C 228.582031 225.300781 228.492188 225.089844 228.492188 224.839844 C 228.492188 224.589844 228.582031 224.375 228.757812 224.199219 C 228.933594 224.023438 229.144531 223.933594 229.394531 223.933594 L 248.703125 223.933594 L 248.703125 123.199219 L 230.300781 137.789062 L 230.300781 151 C 230.300781 151.25 230.210938 151.464844 230.035156 151.640625 C 229.859375 151.816406 229.644531 151.90625 229.394531 151.90625 C 229.144531 151.90625 228.933594 151.816406 228.757812 151.640625 C 228.582031 151.464844 228.492188 151.25 228.492188 151 L 228.492188 137.351562 C 228.492188 137.058594 228.605469 136.824219 228.835938 136.640625 L 249.046875 120.621094 C 249.34375 120.386719 249.660156 120.351562 250 120.515625 C 250.339844 120.679688 250.511719 120.953125 250.511719 121.332031 L 250.511719 224.839844 C 250.511719 225.089844 250.421875 225.300781 250.246094 225.480469 C 250.070312 225.65625 249.859375 225.742188 249.609375 225.742188 Z M 249.609375 225.742188 " fill-opacity="1" fill-rule="nonzero"/></g><g clip-path="url(#bf948925b3)"><path fill="#fcd000" d="M 161.953125 225.742188 L 127.882812 225.742188 C 127.632812 225.742188 127.421875 225.65625 127.246094 225.480469 C 127.066406 225.300781 126.980469 225.089844 126.980469 224.839844 C 126.980469 224.589844 127.066406 224.375 127.246094 224.199219 C 127.421875 224.023438 127.632812 223.933594 127.882812 223.933594 L 161.050781 223.933594 L 161.050781 127.230469 L 128.785156 143.882812 L 128.785156 185.296875 C 128.785156 185.546875 128.699219 185.761719 128.523438 185.9375 C 128.34375 186.113281 128.132812 186.203125 127.882812 186.203125 C 127.632812 186.203125 127.421875 186.113281 127.246094 185.9375 C 127.066406 185.761719 126.980469 185.546875 126.980469 185.296875 L 126.980469 143.332031 C 126.980469 142.964844 127.144531 142.695312 127.46875 142.527344 L 161.542969 124.945312 C 161.679688 124.871094 161.828125 124.835938 161.988281 124.84375 C 162.144531 124.847656 162.289062 124.894531 162.425781 124.976562 C 162.558594 125.058594 162.664062 125.167969 162.742188 125.304688 C 162.820312 125.441406 162.859375 125.589844 162.859375 125.746094 L 162.859375 224.839844 C 162.859375 225.089844 162.769531 225.300781 162.59375 225.480469 C 162.417969 225.65625 162.203125 225.742188 161.953125 225.742188 Z M 161.953125 225.742188 " fill-opacity="1" fill-rule="nonzero"/></g><g clip-path="url(#e69dc6379d)"><path fill="#fcd000" d="M 179.855469 225.742188 L 161.953125 225.742188 C 161.707031 225.742188 161.492188 225.65625 161.316406 225.480469 C 161.140625 225.300781 161.050781 225.089844 161.050781 224.839844 L 161.050781 125.75 C 161.050781 125.566406 161.101562 125.398438 161.203125 125.25 C 161.304688 125.097656 161.4375 124.984375 161.605469 124.914062 C 161.773438 124.84375 161.945312 124.828125 162.125 124.859375 C 162.304688 124.894531 162.457031 124.976562 162.585938 125.101562 L 180.488281 142.683594 C 180.667969 142.863281 180.757812 143.078125 180.757812 143.332031 L 180.757812 224.839844 C 180.757812 225.089844 180.671875 225.300781 180.496094 225.480469 C 180.320312 225.65625 180.105469 225.742188 179.855469 225.742188 Z M 162.859375 223.933594 L 178.953125 223.933594 L 178.953125 143.710938 L 162.859375 127.902344 Z M 162.859375 223.933594 " fill-opacity="1" fill-rule="nonzero"/></g><g clip-path="url(#ae033bcc8f)"><path fill="#0cbc8e" d="M 221.3125 225.742188 L 187.238281 225.742188 C 186.992188 225.742188 186.777344 225.65625 186.601562 225.480469 C 186.425781 225.300781 186.335938 225.089844 186.335938 224.839844 L 186.335938 163.554688 C 186.335938 163.234375 186.46875 162.984375 186.738281 162.804688 L 220.808594 139.910156 C 221.109375 139.710938 221.417969 139.691406 221.738281 139.863281 C 222.054688 140.035156 222.214844 140.300781 222.214844 140.660156 L 222.214844 224.839844 C 222.214844 225.089844 222.125 225.300781 221.949219 225.480469 C 221.773438 225.65625 221.5625 225.742188 221.3125 225.742188 Z M 188.144531 223.933594 L 220.410156 223.933594 L 220.410156 142.359375 L 188.144531 164.039062 Z M 188.144531 223.933594 " fill-opacity="1" fill-rule="nonzero"/></g><g clip-path="url(#374d32db65)"><path fill="#0cbc8e" d="M 239.214844 225.742188 L 221.3125 225.742188 C 221.0625 225.742188 220.847656 225.65625 220.671875 225.480469 C 220.496094 225.300781 220.410156 225.089844 220.410156 224.839844 L 220.410156 140.660156 C 220.410156 140.46875 220.464844 140.292969 220.578125 140.136719 C 220.6875 139.980469 220.835938 139.871094 221.015625 139.808594 C 221.199219 139.742188 221.382812 139.738281 221.566406 139.792969 C 221.75 139.847656 221.902344 139.953125 222.023438 140.105469 L 239.925781 162.996094 C 240.050781 163.160156 240.117188 163.347656 240.117188 163.554688 L 240.117188 224.839844 C 240.117188 225.089844 240.027344 225.300781 239.851562 225.480469 C 239.675781 225.65625 239.460938 225.742188 239.214844 225.742188 Z M 222.214844 223.933594 L 238.308594 223.933594 L 238.308594 163.867188 L 222.214844 143.28125 Z M 222.214844 223.933594 " fill-opacity="1" fill-rule="nonzero"/></g><g clip-path="url(#56514244fc)"><path fill="#0cbc8e" d="M 170.90625 225.742188 L 108.636719 225.742188 C 108.386719 225.742188 108.175781 225.65625 107.996094 225.480469 C 107.820312 225.300781 107.734375 225.089844 107.734375 224.839844 L 107.734375 179.367188 C 107.734375 179.0625 107.855469 178.820312 108.101562 178.636719 C 108.34375 178.453125 108.613281 178.410156 108.902344 178.5 L 171.171875 197.695312 C 171.359375 197.753906 171.515625 197.863281 171.632812 198.019531 C 171.75 198.179688 171.808594 198.359375 171.808594 198.558594 L 171.808594 224.839844 C 171.808594 225.089844 171.722656 225.300781 171.542969 225.480469 C 171.367188 225.65625 171.15625 225.742188 170.90625 225.742188 Z M 109.539062 223.933594 L 170.003906 223.933594 L 170.003906 199.226562 L 109.539062 180.589844 Z M 109.539062 223.933594 " fill-opacity="1" fill-rule="nonzero"/></g><g clip-path="url(#9642a2fd8b)"><path fill="#0cbc8e" d="M 108.636719 225.742188 L 83.296875 225.742188 C 83.046875 225.742188 82.835938 225.65625 82.660156 225.480469 C 82.480469 225.300781 82.394531 225.089844 82.394531 224.839844 L 82.394531 198.558594 C 82.394531 198.257812 82.511719 198.019531 82.753906 197.835938 L 108.089844 178.644531 C 108.390625 178.417969 108.703125 178.390625 109.039062 178.554688 C 109.371094 178.722656 109.539062 178.992188 109.539062 179.367188 L 109.539062 224.839844 C 109.539062 225.089844 109.453125 225.300781 109.277344 225.480469 C 109.097656 225.65625 108.886719 225.742188 108.636719 225.742188 Z M 84.199219 223.933594 L 107.734375 223.933594 L 107.734375 181.183594 L 84.199219 199.007812 Z M 84.199219 223.933594 " fill-opacity="1" fill-rule="nonzero"/></g><g clip-path="url(#cfe8d0c315)"><path fill="#d84aa9" d="M 278.949219 225.742188 L 243.378906 225.742188 C 243.132812 225.742188 242.917969 225.65625 242.742188 225.480469 C 242.566406 225.300781 242.476562 225.089844 242.476562 224.839844 L 242.476562 198.558594 C 242.476562 198.367188 242.53125 198.195312 242.640625 198.042969 C 242.746094 197.886719 242.890625 197.777344 243.066406 197.710938 L 278.636719 184.59375 C 278.933594 184.484375 279.210938 184.519531 279.464844 184.703125 C 279.722656 184.882812 279.851562 185.128906 279.851562 185.441406 L 279.851562 224.839844 C 279.851562 225.089844 279.765625 225.300781 279.589844 225.480469 C 279.410156 225.65625 279.199219 225.742188 278.949219 225.742188 Z M 244.285156 223.933594 L 278.046875 223.933594 L 278.046875 186.738281 L 244.285156 199.1875 Z M 244.285156 223.933594 " fill-opacity="1" fill-rule="nonzero"/></g><g clip-path="url(#ea81783aa7)"><path fill="#d84aa9" d="M 291.429688 225.742188 L 278.949219 225.742188 C 278.699219 225.742188 278.488281 225.65625 278.3125 225.480469 C 278.132812 225.300781 278.046875 225.089844 278.046875 224.839844 L 278.046875 185.445312 C 278.046875 185.257812 278.097656 185.089844 278.203125 184.9375 C 278.304688 184.785156 278.441406 184.671875 278.613281 184.605469 C 278.785156 184.535156 278.960938 184.519531 279.140625 184.558594 C 279.324219 184.597656 279.476562 184.683594 279.601562 184.820312 L 292.082031 197.933594 C 292.25 198.109375 292.332031 198.316406 292.332031 198.558594 L 292.332031 224.839844 C 292.332031 225.089844 292.246094 225.300781 292.070312 225.480469 C 291.890625 225.65625 291.679688 225.742188 291.429688 225.742188 Z M 279.851562 223.933594 L 290.527344 223.933594 L 290.527344 198.921875 L 279.851562 187.703125 Z M 279.851562 223.933594 " fill-opacity="1" fill-rule="nonzero"/></g><g fill="#0082a5" fill-opacity="1"><g transform="translate(134.874872, 261.23946)"><g><path d="M 10.96875 0.40625 C 9.539062 0.40625 8.222656 0.144531 7.015625 -0.375 C 5.804688 -0.894531 4.753906 -1.601562 3.859375 -2.5 C 2.972656 -3.40625 2.273438 -4.46875 1.765625 -5.6875 C 1.253906 -6.90625 1 -8.222656 1 -9.640625 C 1 -11.054688 1.253906 -12.378906 1.765625 -13.609375 C 2.273438 -14.835938 2.972656 -15.898438 3.859375 -16.796875 C 4.753906 -17.703125 5.804688 -18.410156 7.015625 -18.921875 C 8.222656 -19.429688 9.539062 -19.6875 10.96875 -19.6875 C 12.363281 -19.6875 13.671875 -19.429688 14.890625 -18.921875 C 16.109375 -18.410156 17.164062 -17.703125 18.0625 -16.796875 C 18.957031 -15.898438 19.65625 -14.835938 20.15625 -13.609375 C 20.664062 -12.378906 20.921875 -11.054688 20.921875 -9.640625 C 20.921875 -8.222656 20.664062 -6.90625 20.15625 -5.6875 C 19.65625 -4.46875 18.957031 -3.40625 18.0625 -2.5 C 17.164062 -1.601562 16.109375 -0.894531 14.890625 -0.375 C 13.671875 0.144531 12.363281 0.40625 10.96875 0.40625 Z M 10.96875 -3.6875 C 11.769531 -3.6875 12.503906 -3.832031 13.171875 -4.125 C 13.847656 -4.425781 14.429688 -4.84375 14.921875 -5.375 C 15.410156 -5.914062 15.789062 -6.550781 16.0625 -7.28125 C 16.34375 -8.007812 16.484375 -8.796875 16.484375 -9.640625 C 16.484375 -10.484375 16.34375 -11.269531 16.0625 -12 C 15.789062 -12.726562 15.410156 -13.351562 14.921875 -13.875 C 14.429688 -14.40625 13.847656 -14.820312 13.171875 -15.125 C 12.503906 -15.4375 11.769531 -15.59375 10.96875 -15.59375 C 10.15625 -15.59375 9.410156 -15.4375 8.734375 -15.125 C 8.066406 -14.820312 7.488281 -14.40625 7 -13.875 C 6.519531 -13.351562 6.140625 -12.726562 5.859375 -12 C 5.578125 -11.269531 5.4375 -10.484375 5.4375 -9.640625 C 5.4375 -8.796875 5.578125 -8.007812 5.859375 -7.28125 C 6.140625 -6.550781 6.519531 -5.921875 7 -5.390625 C 7.488281 -4.867188 8.066406 -4.453125 8.734375 -4.140625 C 9.410156 -3.835938 10.15625 -3.6875 10.96875 -3.6875 Z M 10.96875 -3.6875 "/></g></g></g><g fill="#0082a5" fill-opacity="1"><g transform="translate(157.743647, 261.23946)"><g><path d="M 2.15625 -19.625 L 4.3125 -19.625 L 12.265625 -9.1875 L 20.125 -19.625 L 22.28125 -19.625 L 22.28125 0 L 18.078125 0 L 18.078125 -10.734375 L 13.03125 -4.09375 L 11.375 -4.09375 L 6.359375 -10.703125 L 6.359375 0 L 2.15625 0 Z M 2.15625 -19.625 "/></g></g></g><g fill="#0082a5" fill-opacity="1"><g transform="translate(183.114975, 261.23946)"><g><path d="M 9.875 0.40625 C 8.71875 0.40625 7.660156 0.203125 6.703125 -0.203125 C 5.742188 -0.609375 4.914062 -1.171875 4.21875 -1.890625 C 3.53125 -2.609375 2.988281 -3.46875 2.59375 -4.46875 C 2.207031 -5.476562 2.015625 -6.578125 2.015625 -7.765625 L 2.015625 -19.28125 L 6.21875 -19.28125 L 6.21875 -7.828125 C 6.21875 -6.546875 6.546875 -5.535156 7.203125 -4.796875 C 7.867188 -4.054688 8.75 -3.6875 9.84375 -3.6875 C 10.9375 -3.6875 11.816406 -4.054688 12.484375 -4.796875 C 13.160156 -5.535156 13.5 -6.546875 13.5 -7.828125 L 13.5 -19.28125 L 17.703125 -19.28125 L 17.703125 -7.765625 C 17.703125 -6.578125 17.503906 -5.476562 17.109375 -4.46875 C 16.710938 -3.46875 16.171875 -2.609375 15.484375 -1.890625 C 14.796875 -1.171875 13.96875 -0.609375 13 -0.203125 C 12.039062 0.203125 11 0.40625 9.875 0.40625 Z M 9.875 0.40625 "/></g></g></g><g fill="#0082a5" fill-opacity="1"><g transform="translate(203.768816, 261.23946)"><g><path d="M 2.15625 -19.28125 L 8.203125 -19.28125 C 9.203125 -19.28125 10.128906 -19.125 10.984375 -18.8125 C 11.835938 -18.507812 12.570312 -18.078125 13.1875 -17.515625 C 13.800781 -16.960938 14.28125 -16.300781 14.625 -15.53125 C 14.96875 -14.769531 15.140625 -13.9375 15.140625 -13.03125 C 15.140625 -11.882812 14.859375 -10.84375 14.296875 -9.90625 C 13.742188 -8.976562 12.976562 -8.253906 12 -7.734375 L 16.515625 0 L 11.625 0 L 7.890625 -6.765625 L 6.359375 -6.765625 L 6.359375 0 L 2.15625 0 Z M 8 -10.46875 C 8.90625 -10.46875 9.617188 -10.691406 10.140625 -11.140625 C 10.671875 -11.597656 10.9375 -12.222656 10.9375 -13.015625 C 10.9375 -13.796875 10.664062 -14.378906 10.125 -14.765625 C 9.59375 -15.148438 8.882812 -15.34375 8 -15.34375 L 6.359375 -15.34375 L 6.359375 -10.46875 Z M 8 -10.46875 "/></g></g></g><g fill="#0082a5" fill-opacity="1"><g transform="translate(221.661201, 261.23946)"><g><path d="M 7.890625 -19.625 L 10.5625 -19.625 L 18.15625 0 L 13.734375 0 L 12.546875 -3.25 L 5.90625 -3.25 L 4.75 0 L 0.28125 0 Z M 11.25 -6.875 L 9.234375 -12.546875 L 7.1875 -6.875 Z M 11.25 -6.875 "/></g></g></g><g fill="#726f6f" fill-opacity="1"><g transform="translate(127.639862, 287.151412)"><g><path d="M 5.515625 0.234375 C 5.035156 0.234375 4.585938 0.148438 4.171875 -0.015625 C 3.765625 -0.191406 3.414062 -0.441406 3.125 -0.765625 L 3.125 0 L 0.9375 0 L 0.9375 -12.046875 L 3.203125 -12.046875 L 3.203125 -7.0625 C 3.492188 -7.351562 3.835938 -7.585938 4.234375 -7.765625 C 4.640625 -7.953125 5.082031 -8.046875 5.5625 -8.046875 C 6.082031 -8.046875 6.566406 -7.941406 7.015625 -7.734375 C 7.472656 -7.523438 7.867188 -7.234375 8.203125 -6.859375 C 8.546875 -6.484375 8.8125 -6.039062 9 -5.53125 C 9.195312 -5.03125 9.296875 -4.488281 9.296875 -3.90625 C 9.296875 -3.320312 9.195312 -2.78125 9 -2.28125 C 8.8125 -1.78125 8.546875 -1.34375 8.203125 -0.96875 C 7.867188 -0.59375 7.46875 -0.296875 7 -0.078125 C 6.539062 0.128906 6.046875 0.234375 5.515625 0.234375 Z M 5.0625 -1.828125 C 5.332031 -1.828125 5.585938 -1.878906 5.828125 -1.984375 C 6.066406 -2.097656 6.273438 -2.25 6.453125 -2.4375 C 6.628906 -2.625 6.769531 -2.84375 6.875 -3.09375 C 6.976562 -3.34375 7.03125 -3.613281 7.03125 -3.90625 C 7.03125 -4.195312 6.976562 -4.46875 6.875 -4.71875 C 6.769531 -4.96875 6.628906 -5.1875 6.453125 -5.375 C 6.273438 -5.5625 6.066406 -5.707031 5.828125 -5.8125 C 5.585938 -5.914062 5.332031 -5.96875 5.0625 -5.96875 C 4.769531 -5.96875 4.503906 -5.914062 4.265625 -5.8125 C 4.035156 -5.707031 3.832031 -5.5625 3.65625 -5.375 C 3.488281 -5.1875 3.359375 -4.96875 3.265625 -4.71875 C 3.171875 -4.46875 3.125 -4.195312 3.125 -3.90625 C 3.125 -3.613281 3.171875 -3.34375 3.265625 -3.09375 C 3.359375 -2.84375 3.488281 -2.625 3.65625 -2.4375 C 3.832031 -2.25 4.035156 -2.097656 4.265625 -1.984375 C 4.503906 -1.878906 4.769531 -1.828125 5.0625 -1.828125 Z M 5.0625 -1.828125 "/></g></g></g><g fill="#726f6f" fill-opacity="1"><g transform="translate(139.330502, 287.151412)"><g><path d="M 4.71875 0.234375 C 4.09375 0.234375 3.519531 0.132812 3 -0.0625 C 2.488281 -0.269531 2.046875 -0.550781 1.671875 -0.90625 C 1.304688 -1.269531 1.019531 -1.703125 0.8125 -2.203125 C 0.613281 -2.710938 0.515625 -3.269531 0.515625 -3.875 C 0.515625 -4.46875 0.613281 -5.019531 0.8125 -5.53125 C 1.019531 -6.039062 1.300781 -6.484375 1.65625 -6.859375 C 2.019531 -7.234375 2.453125 -7.523438 2.953125 -7.734375 C 3.453125 -7.941406 3.992188 -8.046875 4.578125 -8.046875 C 5.128906 -8.046875 5.640625 -7.953125 6.109375 -7.765625 C 6.585938 -7.578125 7 -7.3125 7.34375 -6.96875 C 7.695312 -6.632812 7.972656 -6.234375 8.171875 -5.765625 C 8.367188 -5.304688 8.46875 -4.796875 8.46875 -4.234375 C 8.46875 -4.035156 8.460938 -3.867188 8.453125 -3.734375 C 8.441406 -3.597656 8.414062 -3.429688 8.375 -3.234375 L 2.875 -3.234375 C 2.976562 -2.765625 3.207031 -2.394531 3.5625 -2.125 C 3.925781 -1.851562 4.382812 -1.71875 4.9375 -1.71875 C 5.332031 -1.71875 5.703125 -1.789062 6.046875 -1.9375 C 6.398438 -2.082031 6.734375 -2.316406 7.046875 -2.640625 L 8.25 -1.3125 C 7.800781 -0.800781 7.269531 -0.414062 6.65625 -0.15625 C 6.050781 0.101562 5.40625 0.234375 4.71875 0.234375 Z M 6.203125 -4.8125 C 6.109375 -5.289062 5.914062 -5.65625 5.625 -5.90625 C 5.332031 -6.15625 4.972656 -6.28125 4.546875 -6.28125 C 4.109375 -6.28125 3.738281 -6.148438 3.4375 -5.890625 C 3.132812 -5.628906 2.929688 -5.269531 2.828125 -4.8125 Z M 6.203125 -4.8125 "/></g></g></g><g fill="#726f6f" fill-opacity="1"><g transform="translate(150.18972, 287.151412)"><g><path d="M 4.28125 0.234375 C 3.363281 0.234375 2.660156 -0.0195312 2.171875 -0.53125 C 1.691406 -1.050781 1.453125 -1.78125 1.453125 -2.71875 L 1.453125 -5.96875 L 0.25 -5.96875 L 0.25 -7.8125 L 1.453125 -7.8125 L 1.453125 -10.015625 L 3.734375 -10.015625 L 3.734375 -7.8125 L 5.890625 -7.8125 L 5.890625 -5.96875 L 3.734375 -5.96875 L 3.734375 -2.90625 C 3.734375 -2.539062 3.804688 -2.253906 3.953125 -2.046875 C 4.097656 -1.847656 4.335938 -1.75 4.671875 -1.75 C 5.023438 -1.75 5.382812 -1.894531 5.75 -2.1875 L 6.65625 -0.671875 C 6.0625 -0.0664062 5.269531 0.234375 4.28125 0.234375 Z M 4.28125 0.234375 "/></g></g></g><g fill="#726f6f" fill-opacity="1"><g transform="translate(158.894067, 287.151412)"><g><path d="M 4.28125 0.234375 C 3.363281 0.234375 2.660156 -0.0195312 2.171875 -0.53125 C 1.691406 -1.050781 1.453125 -1.78125 1.453125 -2.71875 L 1.453125 -5.96875 L 0.25 -5.96875 L 0.25 -7.8125 L 1.453125 -7.8125 L 1.453125 -10.015625 L 3.734375 -10.015625 L 3.734375 -7.8125 L 5.890625 -7.8125 L 5.890625 -5.96875 L 3.734375 -5.96875 L 3.734375 -2.90625 C 3.734375 -2.539062 3.804688 -2.253906 3.953125 -2.046875 C 4.097656 -1.847656 4.335938 -1.75 4.671875 -1.75 C 5.023438 -1.75 5.382812 -1.894531 5.75 -2.1875 L 6.65625 -0.671875 C 6.0625 -0.0664062 5.269531 0.234375 4.28125 0.234375 Z M 4.28125 0.234375 "/></g></g></g><g fill="#726f6f" fill-opacity="1"><g transform="translate(167.598418, 287.151412)"><g><path d="M 4.71875 0.234375 C 4.09375 0.234375 3.519531 0.132812 3 -0.0625 C 2.488281 -0.269531 2.046875 -0.550781 1.671875 -0.90625 C 1.304688 -1.269531 1.019531 -1.703125 0.8125 -2.203125 C 0.613281 -2.710938 0.515625 -3.269531 0.515625 -3.875 C 0.515625 -4.46875 0.613281 -5.019531 0.8125 -5.53125 C 1.019531 -6.039062 1.300781 -6.484375 1.65625 -6.859375 C 2.019531 -7.234375 2.453125 -7.523438 2.953125 -7.734375 C 3.453125 -7.941406 3.992188 -8.046875 4.578125 -8.046875 C 5.128906 -8.046875 5.640625 -7.953125 6.109375 -7.765625 C 6.585938 -7.578125 7 -7.3125 7.34375 -6.96875 C 7.695312 -6.632812 7.972656 -6.234375 8.171875 -5.765625 C 8.367188 -5.304688 8.46875 -4.796875 8.46875 -4.234375 C 8.46875 -4.035156 8.460938 -3.867188 8.453125 -3.734375 C 8.441406 -3.597656 8.414062 -3.429688 8.375 -3.234375 L 2.875 -3.234375 C 2.976562 -2.765625 3.207031 -2.394531 3.5625 -2.125 C 3.925781 -1.851562 4.382812 -1.71875 4.9375 -1.71875 C 5.332031 -1.71875 5.703125 -1.789062 6.046875 -1.9375 C 6.398438 -2.082031 6.734375 -2.316406 7.046875 -2.640625 L 8.25 -1.3125 C 7.800781 -0.800781 7.269531 -0.414062 6.65625 -0.15625 C 6.050781 0.101562 5.40625 0.234375 4.71875 0.234375 Z M 6.203125 -4.8125 C 6.109375 -5.289062 5.914062 -5.65625 5.625 -5.90625 C 5.332031 -6.15625 4.972656 -6.28125 4.546875 -6.28125 C 4.109375 -6.28125 3.738281 -6.148438 3.4375 -5.890625 C 3.132812 -5.628906 2.929688 -5.269531 2.828125 -4.8125 Z M 6.203125 -4.8125 "/></g></g></g><g fill="#726f6f" fill-opacity="1"><g transform="translate(178.457637, 287.151412)"><g><path d="M 0.9375 -7.8125 L 3.125 -7.8125 L 3.125 -6.796875 C 3.570312 -7.628906 4.253906 -8.046875 5.171875 -8.046875 C 5.296875 -8.046875 5.414062 -8.039062 5.53125 -8.03125 C 5.644531 -8.019531 5.726562 -8 5.78125 -7.96875 L 5.515625 -5.5625 C 5.222656 -5.664062 4.953125 -5.71875 4.703125 -5.71875 C 4.222656 -5.71875 3.851562 -5.570312 3.59375 -5.28125 C 3.332031 -4.988281 3.203125 -4.585938 3.203125 -4.078125 L 3.203125 0 L 0.9375 0 Z M 0.9375 -7.8125 "/></g></g></g><g fill="#726f6f" fill-opacity="1"><g transform="translate(186.211793, 287.151412)"><g/></g></g><g fill="#726f6f" fill-opacity="1"><g transform="translate(191.828039, 287.151412)"><g><path d="M 1.53125 -5.96875 L 0.34375 -5.96875 L 0.34375 -7.8125 L 1.53125 -7.8125 L 1.53125 -8.953125 C 1.53125 -9.921875 1.789062 -10.675781 2.3125 -11.21875 C 2.84375 -11.769531 3.554688 -12.046875 4.453125 -12.046875 C 5.335938 -12.046875 6.109375 -11.753906 6.765625 -11.171875 L 5.640625 -9.59375 C 5.472656 -9.769531 5.3125 -9.890625 5.15625 -9.953125 C 5.007812 -10.023438 4.851562 -10.0625 4.6875 -10.0625 C 4.09375 -10.0625 3.796875 -9.695312 3.796875 -8.96875 L 3.796875 -7.8125 L 6 -7.8125 L 6 -5.96875 L 3.796875 -5.96875 L 3.796875 0 L 1.53125 0 Z M 1.53125 -5.96875 "/></g></g></g><g fill="#726f6f" fill-opacity="1"><g transform="translate(199.887614, 287.151412)"><g><path d="M 3.78125 0.234375 C 3.351562 0.234375 2.957031 0.15625 2.59375 0 C 2.238281 -0.164062 1.929688 -0.394531 1.671875 -0.6875 C 1.421875 -0.976562 1.21875 -1.316406 1.0625 -1.703125 C 0.914062 -2.097656 0.84375 -2.519531 0.84375 -2.96875 L 0.84375 -7.8125 L 3.125 -7.8125 L 3.125 -3.53125 C 3.125 -3.007812 3.25 -2.59375 3.5 -2.28125 C 3.75 -1.976562 4.085938 -1.828125 4.515625 -1.828125 C 4.941406 -1.828125 5.28125 -1.984375 5.53125 -2.296875 C 5.789062 -2.617188 5.921875 -3.046875 5.921875 -3.578125 L 5.921875 -7.8125 L 8.203125 -7.8125 L 8.203125 0 L 6 0 L 6 -0.9375 C 5.71875 -0.5625 5.390625 -0.269531 5.015625 -0.0625 C 4.648438 0.132812 4.238281 0.234375 3.78125 0.234375 Z M 3.78125 0.234375 "/></g></g></g><g fill="#726f6f" fill-opacity="1"><g transform="translate(210.899542, 287.151412)"><g><path d="M 4.28125 0.234375 C 3.363281 0.234375 2.660156 -0.0195312 2.171875 -0.53125 C 1.691406 -1.050781 1.453125 -1.78125 1.453125 -2.71875 L 1.453125 -5.96875 L 0.25 -5.96875 L 0.25 -7.8125 L 1.453125 -7.8125 L 1.453125 -10.015625 L 3.734375 -10.015625 L 3.734375 -7.8125 L 5.890625 -7.8125 L 5.890625 -5.96875 L 3.734375 -5.96875 L 3.734375 -2.90625 C 3.734375 -2.539062 3.804688 -2.253906 3.953125 -2.046875 C 4.097656 -1.847656 4.335938 -1.75 4.671875 -1.75 C 5.023438 -1.75 5.382812 -1.894531 5.75 -2.1875 L 6.65625 -0.671875 C 6.0625 -0.0664062 5.269531 0.234375 4.28125 0.234375 Z M 4.28125 0.234375 "/></g></g></g><g fill="#726f6f" fill-opacity="1"><g transform="translate(219.603888, 287.151412)"><g><path d="M 3.78125 0.234375 C 3.351562 0.234375 2.957031 0.15625 2.59375 0 C 2.238281 -0.164062 1.929688 -0.394531 1.671875 -0.6875 C 1.421875 -0.976562 1.21875 -1.316406 1.0625 -1.703125 C 0.914062 -2.097656 0.84375 -2.519531 0.84375 -2.96875 L 0.84375 -7.8125 L 3.125 -7.8125 L 3.125 -3.53125 C 3.125 -3.007812 3.25 -2.59375 3.5 -2.28125 C 3.75 -1.976562 4.085938 -1.828125 4.515625 -1.828125 C 4.941406 -1.828125 5.28125 -1.984375 5.53125 -2.296875 C 5.789062 -2.617188 5.921875 -3.046875 5.921875 -3.578125 L 5.921875 -7.8125 L 8.203125 -7.8125 L 8.203125 0 L 6 0 L 6 -0.9375 C 5.71875 -0.5625 5.390625 -0.269531 5.015625 -0.0625 C 4.648438 0.132812 4.238281 0.234375 3.78125 0.234375 Z M 3.78125 0.234375 "/></g></g></g><g fill="#726f6f" fill-opacity="1"><g transform="translate(230.615816, 287.151412)"><g><path d="M 0.9375 -7.8125 L 3.125 -7.8125 L 3.125 -6.796875 C 3.570312 -7.628906 4.253906 -8.046875 5.171875 -8.046875 C 5.296875 -8.046875 5.414062 -8.039062 5.53125 -8.03125 C 5.644531 -8.019531 5.726562 -8 5.78125 -7.96875 L 5.515625 -5.5625 C 5.222656 -5.664062 4.953125 -5.71875 4.703125 -5.71875 C 4.222656 -5.71875 3.851562 -5.570312 3.59375 -5.28125 C 3.332031 -4.988281 3.203125 -4.585938 3.203125 -4.078125 L 3.203125 0 L 0.9375 0 Z M 0.9375 -7.8125 "/></g></g></g><g fill="#726f6f" fill-opacity="1"><g transform="translate(238.369972, 287.151412)"><g><path d="M 4.71875 0.234375 C 4.09375 0.234375 3.519531 0.132812 3 -0.0625 C 2.488281 -0.269531 2.046875 -0.550781 1.671875 -0.90625 C 1.304688 -1.269531 1.019531 -1.703125 0.8125 -2.203125 C 0.613281 -2.710938 0.515625 -3.269531 0.515625 -3.875 C 0.515625 -4.46875 0.613281 -5.019531 0.8125 -5.53125 C 1.019531 -6.039062 1.300781 -6.484375 1.65625 -6.859375 C 2.019531 -7.234375 2.453125 -7.523438 2.953125 -7.734375 C 3.453125 -7.941406 3.992188 -8.046875 4.578125 -8.046875 C 5.128906 -8.046875 5.640625 -7.953125 6.109375 -7.765625 C 6.585938 -7.578125 7 -7.3125 7.34375 -6.96875 C 7.695312 -6.632812 7.972656 -6.234375 8.171875 -5.765625 C 8.367188 -5.304688 8.46875 -4.796875 8.46875 -4.234375 C 8.46875 -4.035156 8.460938 -3.867188 8.453125 -3.734375 C 8.441406 -3.597656 8.414062 -3.429688 8.375 -3.234375 L 2.875 -3.234375 C 2.976562 -2.765625 3.207031 -2.394531 3.5625 -2.125 C 3.925781 -1.851562 4.382812 -1.71875 4.9375 -1.71875 C 5.332031 -1.71875 5.703125 -1.789062 6.046875 -1.9375 C 6.398438 -2.082031 6.734375 -2.316406 7.046875 -2.640625 L 8.25 -1.3125 C 7.800781 -0.800781 7.269531 -0.414062 6.65625 -0.15625 C 6.050781 0.101562 5.40625 0.234375 4.71875 0.234375 Z M 6.203125 -4.8125 C 6.109375 -5.289062 5.914062 -5.65625 5.625 -5.90625 C 5.332031 -6.15625 4.972656 -6.28125 4.546875 -6.28125 C 4.109375 -6.28125 3.738281 -6.148438 3.4375 -5.890625 C 3.132812 -5.628906 2.929688 -5.269531 2.828125 -4.8125 Z M 6.203125 -4.8125 "/></g></g></g></svg>